<svg width="100%" height="100%" viewBox="0 0 225 225" fill="none" xmlns="http://www.w3.org/2000/svg">
<g filter="url(#filter0_d)">
<circle cx="112.5" cy="112.5" r="87.5" fill="#E42326"/>
</g>
<circle cx="112.5" cy="112.5" r="78" stroke="white"/>
<path d="M97.1484 92.8408H97.9824C99.2858 92.8408 100.293 93.1051 101.004 93.6338C101.715 94.1624 102.07 94.9098 102.07 95.876C102.07 97.9587 100.694 99 97.9414 99H95.0293V89.0059H101.346V90.7559H97.1484V92.8408ZM97.1484 97.2637H97.8594C98.5749 97.2637 99.099 97.1497 99.4316 96.9219C99.7643 96.6895 99.9307 96.3408 99.9307 95.876C99.9307 95.4157 99.762 95.0853 99.4248 94.8848C99.0876 94.6797 98.5088 94.5771 97.6885 94.5771H97.1484V97.2637ZM113.042 93.9893C113.042 95.6436 112.632 96.915 111.812 97.8037C110.991 98.6924 109.815 99.1367 108.284 99.1367C106.753 99.1367 105.577 98.6924 104.757 97.8037C103.937 96.915 103.526 95.639 103.526 93.9756C103.526 92.3122 103.937 91.043 104.757 90.168C105.582 89.2884 106.762 88.8486 108.298 88.8486C109.834 88.8486 111.007 89.2907 111.818 90.1748C112.634 91.0589 113.042 92.3304 113.042 93.9893ZM105.748 93.9893C105.748 95.1058 105.96 95.9466 106.384 96.5117C106.808 97.0768 107.441 97.3594 108.284 97.3594C109.975 97.3594 110.82 96.236 110.82 93.9893C110.82 91.738 109.979 90.6123 108.298 90.6123C107.455 90.6123 106.819 90.8971 106.391 91.4668C105.962 92.0319 105.748 92.8727 105.748 93.9893ZM123.022 99H120.91V90.7695H118.463L118.354 91.6855C118.071 94.0143 117.82 95.6504 117.602 96.5938C117.387 97.5326 117.073 98.1934 116.658 98.5762C116.243 98.959 115.683 99.1458 114.977 99.1367C114.594 99.1367 114.257 99.0866 113.965 98.9863V97.25C114.229 97.3411 114.478 97.3867 114.71 97.3867C114.951 97.3867 115.143 97.2773 115.284 97.0586C115.425 96.8353 115.558 96.4251 115.681 95.8281C115.808 95.2266 115.975 94.2445 116.18 92.8818C116.389 91.5146 116.567 90.2227 116.713 89.0059H123.022V99ZM132.586 95.876C132.586 97.9587 131.21 99 128.457 99H125.545V89.0059H127.664V92.8408H128.498C129.801 92.8408 130.809 93.1051 131.52 93.6338C132.23 94.1624 132.586 94.9098 132.586 95.876ZM127.664 97.2637H128.375C129.09 97.2637 129.615 97.1497 129.947 96.9219C130.28 96.6895 130.446 96.3408 130.446 95.876C130.446 95.4157 130.278 95.0853 129.94 94.8848C129.603 94.6797 129.024 94.5771 128.204 94.5771H127.664V97.2637ZM58.4023 111.841H59.2363C60.5397 111.841 61.5469 112.105 62.2578 112.634C62.9688 113.162 63.3242 113.91 63.3242 114.876C63.3242 116.959 61.9479 118 59.1953 118H56.2832V108.006H62.5996V109.756H58.4023V111.841ZM58.4023 116.264H59.1133C59.8288 116.264 60.3529 116.15 60.6855 115.922C61.0182 115.689 61.1846 115.341 61.1846 114.876C61.1846 114.416 61.016 114.085 60.6787 113.885C60.3415 113.68 59.7627 113.577 58.9424 113.577H58.4023V116.264ZM70.9805 118H65.2246V108.006H70.9805V109.742H67.3438V111.937H70.7275V113.673H67.3438V116.25H70.9805V118ZM77.3174 109.626C76.5199 109.626 75.9023 109.927 75.4648 110.528C75.0273 111.125 74.8086 111.959 74.8086 113.03C74.8086 115.259 75.6449 116.373 77.3174 116.373C78.0192 116.373 78.8691 116.198 79.8672 115.847V117.624C79.0469 117.966 78.1309 118.137 77.1191 118.137C75.6654 118.137 74.5534 117.697 73.7832 116.817C73.013 115.933 72.6279 114.666 72.6279 113.017C72.6279 111.978 72.8171 111.068 73.1953 110.289C73.5736 109.505 74.1159 108.906 74.8223 108.491C75.5332 108.072 76.3649 107.862 77.3174 107.862C78.2881 107.862 79.2633 108.097 80.2432 108.566L79.5596 110.289C79.1859 110.111 78.8099 109.956 78.4316 109.824C78.0534 109.692 77.682 109.626 77.3174 109.626ZM89.9092 118H87.7969V109.77H84.1191V118H82V108.006H89.9092V118ZM101.503 112.989C101.503 114.644 101.093 115.915 100.272 116.804C99.4521 117.692 98.2764 118.137 96.7451 118.137C95.2139 118.137 94.0381 117.692 93.2178 116.804C92.3975 115.915 91.9873 114.639 91.9873 112.976C91.9873 111.312 92.3975 110.043 93.2178 109.168C94.0426 108.288 95.223 107.849 96.7588 107.849C98.2946 107.849 99.4681 108.291 100.279 109.175C101.095 110.059 101.503 111.33 101.503 112.989ZM94.209 112.989C94.209 114.106 94.4209 114.947 94.8447 115.512C95.2686 116.077 95.902 116.359 96.7451 116.359C98.4359 116.359 99.2812 115.236 99.2812 112.989C99.2812 110.738 98.4404 109.612 96.7588 109.612C95.9157 109.612 95.2799 109.897 94.8516 110.467C94.4232 111.032 94.209 111.873 94.209 112.989ZM111.723 118H109.316L105.693 112.935V118H103.574V108.006H105.693V112.846L109.275 108.006H111.531L107.888 112.805L111.723 118ZM122.052 112.989C122.052 114.644 121.642 115.915 120.821 116.804C120.001 117.692 118.825 118.137 117.294 118.137C115.763 118.137 114.587 117.692 113.767 116.804C112.946 115.915 112.536 114.639 112.536 112.976C112.536 111.312 112.946 110.043 113.767 109.168C114.591 108.288 115.772 107.849 117.308 107.849C118.843 107.849 120.017 108.291 120.828 109.175C121.644 110.059 122.052 111.33 122.052 112.989ZM114.758 112.989C114.758 114.106 114.97 114.947 115.394 115.512C115.817 116.077 116.451 116.359 117.294 116.359C118.985 116.359 119.83 115.236 119.83 112.989C119.83 110.738 118.989 109.612 117.308 109.612C116.465 109.612 115.829 109.897 115.4 110.467C114.972 111.032 114.758 111.873 114.758 112.989ZM124.123 108.006H126.03V112.832L126.003 114.124L125.935 115.594H125.976L130.59 108.006H133.126V118H131.239V113.201C131.239 112.559 131.28 111.606 131.362 110.344H131.308L126.673 118H124.123V108.006ZM131.937 104.759C131.85 105.611 131.529 106.233 130.973 106.625C130.417 107.012 129.615 107.206 128.566 107.206C127.486 107.206 126.687 107.019 126.167 106.646C125.652 106.272 125.363 105.643 125.299 104.759H127.165C127.197 105.228 127.313 105.559 127.514 105.75C127.719 105.937 128.083 106.03 128.607 106.03C129.068 106.03 129.41 105.928 129.633 105.723C129.861 105.513 130 105.192 130.05 104.759H131.937ZM139.894 109.626C139.096 109.626 138.479 109.927 138.041 110.528C137.604 111.125 137.385 111.959 137.385 113.03C137.385 115.259 138.221 116.373 139.894 116.373C140.595 116.373 141.445 116.198 142.443 115.847V117.624C141.623 117.966 140.707 118.137 139.695 118.137C138.242 118.137 137.13 117.697 136.359 116.817C135.589 115.933 135.204 114.666 135.204 113.017C135.204 111.978 135.393 111.068 135.771 110.289C136.15 109.505 136.692 108.906 137.398 108.491C138.109 108.072 138.941 107.862 139.894 107.862C140.864 107.862 141.84 108.097 142.819 108.566L142.136 110.289C141.762 110.111 141.386 109.956 141.008 109.824C140.63 109.692 140.258 109.626 139.894 109.626ZM148.432 118H146.312V109.77H143.599V108.006H151.146V109.77H148.432V118ZM152.684 108.006H155.794C157.211 108.006 158.239 108.209 158.877 108.614C159.52 109.015 159.841 109.656 159.841 110.535C159.841 111.132 159.7 111.622 159.417 112.005C159.139 112.388 158.768 112.618 158.303 112.695V112.764C158.936 112.905 159.392 113.169 159.67 113.557C159.952 113.944 160.094 114.459 160.094 115.102C160.094 116.013 159.763 116.724 159.103 117.234C158.446 117.745 157.553 118 156.423 118H152.684V108.006ZM154.803 111.964H156.033C156.607 111.964 157.022 111.875 157.277 111.697C157.537 111.52 157.667 111.226 157.667 110.815C157.667 110.433 157.526 110.159 157.243 109.995C156.965 109.826 156.523 109.742 155.917 109.742H154.803V111.964ZM154.803 113.646V116.25H156.184C156.767 116.25 157.198 116.138 157.476 115.915C157.754 115.692 157.893 115.35 157.893 114.89C157.893 114.06 157.3 113.646 156.115 113.646H154.803ZM171.161 112.989C171.161 114.644 170.751 115.915 169.931 116.804C169.11 117.692 167.935 118.137 166.403 118.137C164.872 118.137 163.696 117.692 162.876 116.804C162.056 115.915 161.646 114.639 161.646 112.976C161.646 111.312 162.056 110.043 162.876 109.168C163.701 108.288 164.881 107.849 166.417 107.849C167.953 107.849 169.126 108.291 169.938 109.175C170.753 110.059 171.161 111.33 171.161 112.989ZM163.867 112.989C163.867 114.106 164.079 114.947 164.503 115.512C164.927 116.077 165.56 116.359 166.403 116.359C168.094 116.359 168.939 115.236 168.939 112.989C168.939 110.738 168.099 109.612 166.417 109.612C165.574 109.612 164.938 109.897 164.51 110.467C164.081 111.032 163.867 111.873 163.867 112.989ZM74.3848 128.626C73.5872 128.626 72.9697 128.927 72.5322 129.528C72.0947 130.125 71.876 130.959 71.876 132.03C71.876 134.259 72.7122 135.373 74.3848 135.373C75.0866 135.373 75.9365 135.198 76.9346 134.847V136.624C76.1143 136.966 75.1982 137.137 74.1865 137.137C72.7327 137.137 71.6208 136.697 70.8506 135.817C70.0804 134.933 69.6953 133.666 69.6953 132.017C69.6953 130.978 69.8844 130.068 70.2627 129.289C70.641 128.505 71.1833 127.906 71.8896 127.491C72.6006 127.072 73.4323 126.862 74.3848 126.862C75.3555 126.862 76.3307 127.097 77.3105 127.566L76.627 129.289C76.2533 129.111 75.8773 128.956 75.499 128.824C75.1208 128.692 74.7493 128.626 74.3848 128.626ZM79.0674 127.006H80.9746V131.832L80.9473 133.124L80.8789 134.594H80.9199L85.5342 127.006H88.0703V137H86.1836V132.201C86.1836 131.559 86.2246 130.606 86.3066 129.344H86.252L81.6172 137H79.0674V127.006ZM94.8242 137L92.418 129.159H92.3564C92.443 130.754 92.4863 131.818 92.4863 132.352V137H90.5928V127.006H93.4775L95.8428 134.648H95.8838L98.3926 127.006H101.277V137H99.3018V132.27C99.3018 132.046 99.304 131.789 99.3086 131.497C99.3177 131.205 99.3496 130.431 99.4043 129.173H99.3428L96.7656 137H94.8242ZM111.709 137H109.597V128.77H105.919V137H103.8V127.006H111.709V137ZM118.087 137H115.968V128.77H113.254V127.006H120.801V128.77H118.087V137ZM131.41 131.989C131.41 133.644 131 134.915 130.18 135.804C129.359 136.692 128.184 137.137 126.652 137.137C125.121 137.137 123.945 136.692 123.125 135.804C122.305 134.915 121.895 133.639 121.895 131.976C121.895 130.312 122.305 129.043 123.125 128.168C123.95 127.288 125.13 126.849 126.666 126.849C128.202 126.849 129.375 127.291 130.187 128.175C131.002 129.059 131.41 130.33 131.41 131.989ZM124.116 131.989C124.116 133.106 124.328 133.947 124.752 134.512C125.176 135.077 125.809 135.359 126.652 135.359C128.343 135.359 129.188 134.236 129.188 131.989C129.188 129.738 128.348 128.612 126.666 128.612C125.823 128.612 125.187 128.897 124.759 129.467C124.33 130.032 124.116 130.873 124.116 131.989ZM137.713 137L135.307 129.159H135.245C135.332 130.754 135.375 131.818 135.375 132.352V137H133.481V127.006H136.366L138.731 134.648H138.772L141.281 127.006H144.166V137H142.19V132.27C142.19 132.046 142.193 131.789 142.197 131.497C142.206 131.205 142.238 130.431 142.293 129.173H142.231L139.654 137H137.713ZM153.524 133.876C153.524 134.915 153.178 135.697 152.485 136.221C151.797 136.74 150.776 137 149.423 137H146.688V127.006H148.808V130.841H149.491C150.772 130.841 151.763 131.107 152.465 131.641C153.171 132.169 153.524 132.914 153.524 133.876ZM148.808 135.264H149.361C150.059 135.264 150.569 135.15 150.893 134.922C151.216 134.689 151.378 134.341 151.378 133.876C151.378 133.411 151.221 133.078 150.906 132.878C150.596 132.677 150.049 132.577 149.266 132.577H148.808V135.264ZM156.854 137H154.741V127.006H156.854V137Z" fill="white"/>
<defs>
<filter id="filter0_d" x="0" y="0" width="225" height="225" filterUnits="userSpaceOnUse" color-interpolation-filters="sRGB">
<feFlood flood-opacity="0" result="BackgroundImageFix"/>
<feColorMatrix in="SourceAlpha" type="matrix" values="0 0 0 0 0 0 0 0 0 0 0 0 0 0 0 0 0 0 127 0"/>
<feOffset/>
<feGaussianBlur stdDeviation="12.5"/>
<feColorMatrix type="matrix" values="0 0 0 0 0 0 0 0 0 0 0 0 0 0 0 0 0 0 0.15 0"/>
<feBlend mode="normal" in2="BackgroundImageFix" result="effect1_dropShadow"/>
<feBlend mode="normal" in="SourceGraphic" in2="effect1_dropShadow" result="shape"/>
</filter>
</defs>
</svg>
