<svg width="100%" height="100%" viewBox="0 0 563 285" fill="none" xmlns="http://www.w3.org/2000/svg">
<g filter="url(#filter0_d)">
<path d="M390.101 36.0696C365.956 66.6214 328.593 86.2513 286.621 86.2513C238.098 86.2513 195.723 60.0261 172.84 21L74.2019 23.6262L25 104.662C77.0767 195.103 174.733 256 286.621 256C391.554 256 483.961 202.431 538 121.171L441.027 119.053L390.101 36.0696Z" fill="url(#paint0_linear)"/>
</g>
<path d="M231.775 189H229.369L225.746 183.935V189H223.627V179.006H225.746V183.846L229.328 179.006H231.584L227.94 183.805L231.775 189ZM242.104 183.989C242.104 185.644 241.694 186.915 240.874 187.804C240.054 188.692 238.878 189.137 237.347 189.137C235.815 189.137 234.64 188.692 233.819 187.804C232.999 186.915 232.589 185.639 232.589 183.976C232.589 182.312 232.999 181.043 233.819 180.168C234.644 179.288 235.825 178.849 237.36 178.849C238.896 178.849 240.07 179.291 240.881 180.175C241.697 181.059 242.104 182.33 242.104 183.989ZM234.811 183.989C234.811 185.106 235.022 185.947 235.446 186.512C235.87 187.077 236.504 187.359 237.347 187.359C239.037 187.359 239.883 186.236 239.883 183.989C239.883 181.738 239.042 180.612 237.36 180.612C236.517 180.612 235.882 180.897 235.453 181.467C235.025 182.032 234.811 182.873 234.811 183.989ZM252.365 189H250.253V184.687H246.295V189H244.176V179.006H246.295V182.923H250.253V179.006H252.365V189ZM259.14 180.626C258.342 180.626 257.725 180.927 257.287 181.528C256.85 182.125 256.631 182.959 256.631 184.03C256.631 186.259 257.467 187.373 259.14 187.373C259.841 187.373 260.691 187.198 261.689 186.847V188.624C260.869 188.966 259.953 189.137 258.941 189.137C257.488 189.137 256.376 188.697 255.605 187.817C254.835 186.933 254.45 185.666 254.45 184.017C254.45 182.978 254.639 182.068 255.018 181.289C255.396 180.505 255.938 179.906 256.645 179.491C257.355 179.072 258.187 178.862 259.14 178.862C260.11 178.862 261.086 179.097 262.065 179.566L261.382 181.289C261.008 181.111 260.632 180.956 260.254 180.824C259.876 180.692 259.504 180.626 259.14 180.626ZM271.704 179.006L268.614 186.074C268.227 186.963 267.862 187.601 267.521 187.988C267.183 188.376 266.782 188.665 266.317 188.856C265.853 189.043 265.287 189.137 264.622 189.137C264.052 189.137 263.521 189.068 263.029 188.932V187.113C263.43 187.277 263.929 187.359 264.526 187.359C264.905 187.359 265.21 187.273 265.442 187.1C265.675 186.922 265.868 186.617 266.023 186.184L262.564 179.006H264.807L267.268 184.577H267.336L267.459 184.235L269.523 179.006H271.704ZM280.878 189H278.766V180.77H276.318L276.209 181.686C275.926 184.014 275.676 185.65 275.457 186.594C275.243 187.533 274.928 188.193 274.514 188.576C274.099 188.959 273.538 189.146 272.832 189.137C272.449 189.137 272.112 189.087 271.82 188.986V187.25C272.085 187.341 272.333 187.387 272.565 187.387C272.807 187.387 272.998 187.277 273.14 187.059C273.281 186.835 273.413 186.425 273.536 185.828C273.664 185.227 273.83 184.244 274.035 182.882C274.245 181.515 274.423 180.223 274.568 179.006H280.878V189ZM290.441 185.876C290.441 187.959 289.065 189 286.312 189H283.4V179.006H285.52V182.841H286.354C287.657 182.841 288.664 183.105 289.375 183.634C290.086 184.162 290.441 184.91 290.441 185.876ZM285.52 187.264H286.23C286.946 187.264 287.47 187.15 287.803 186.922C288.135 186.689 288.302 186.341 288.302 185.876C288.302 185.416 288.133 185.085 287.796 184.885C287.459 184.68 286.88 184.577 286.06 184.577H285.52V187.264ZM296.197 189H294.078V180.77H291.364V179.006H298.911V180.77H296.197V189ZM306.567 189L305.843 186.621H302.199L301.475 189H299.191L302.719 178.965H305.31L308.851 189H306.567ZM305.337 184.844C304.667 182.688 304.289 181.469 304.202 181.187C304.12 180.904 304.061 180.681 304.024 180.517C303.874 181.1 303.443 182.542 302.732 184.844H305.337ZM318.024 187.318H319.515V191.912H317.471V189H310.115V179.006H312.234V187.236H315.912V179.006H318.024V187.318ZM321.053 179.006H322.96V183.832L322.933 185.124L322.864 186.594H322.905L327.52 179.006H330.056V189H328.169V184.201C328.169 183.559 328.21 182.606 328.292 181.344H328.237L323.603 189H321.053V179.006ZM335.941 185.165L333.604 189H331.252L334.096 184.604C333.531 184.377 333.098 184.026 332.797 183.552C332.496 183.073 332.346 182.51 332.346 181.863C332.346 180.947 332.669 180.243 333.316 179.751C333.968 179.254 334.902 179.006 336.119 179.006H339.373V189H337.254V185.165H335.941ZM337.254 180.742H336.208C335.661 180.742 335.237 180.84 334.937 181.036C334.636 181.232 334.485 181.558 334.485 182.014C334.485 182.456 334.631 182.804 334.923 183.06C335.215 183.315 335.661 183.442 336.263 183.442H337.254V180.742ZM241.968 198.006H243.875V202.832L243.848 204.124L243.779 205.594H243.82L248.435 198.006H250.971V208H249.084V203.201C249.084 202.559 249.125 201.606 249.207 200.344H249.152L244.518 208H241.968V198.006ZM265.039 208H262.927V199.77H260.479L260.37 200.686C260.088 203.014 259.837 204.65 259.618 205.594C259.404 206.533 259.09 207.193 258.675 207.576C258.26 207.959 257.7 208.146 256.993 208.137C256.61 208.137 256.273 208.087 255.981 207.986V206.25C256.246 206.341 256.494 206.387 256.727 206.387C256.968 206.387 257.16 206.277 257.301 206.059C257.442 205.835 257.574 205.425 257.697 204.828C257.825 204.227 257.991 203.244 258.196 201.882C258.406 200.515 258.584 199.223 258.729 198.006H265.039V208ZM273.317 208H267.562V198.006H273.317V199.742H269.681V201.937H273.064V203.673H269.681V206.25H273.317V208ZM283.086 208H280.967V204.138C280.265 204.375 279.679 204.536 279.21 204.623C278.745 204.71 278.301 204.753 277.877 204.753C276.924 204.753 276.188 204.525 275.669 204.069C275.154 203.609 274.896 202.964 274.896 202.135V198.006H277.009V201.533C277.009 202.016 277.12 202.381 277.344 202.627C277.567 202.868 277.945 202.989 278.479 202.989C278.852 202.989 279.224 202.953 279.593 202.88C279.966 202.802 280.424 202.67 280.967 202.483V198.006H283.086V208ZM291.364 208H285.608V198.006H291.364V199.742H287.728V201.937H291.111V203.673H287.728V206.25H291.364V208ZM301.646 208H299.533V203.687H295.575V208H293.456V198.006H295.575V201.923H299.533V198.006H301.646V208ZM304.175 198.006H306.082V202.832L306.055 204.124L305.986 205.594H306.027L310.642 198.006H313.178V208H311.291V203.201C311.291 202.559 311.332 201.606 311.414 200.344H311.359L306.725 208H304.175V198.006ZM321.456 208H315.7V198.006H321.456V199.742H317.819V201.937H321.203V203.673H317.819V206.25H321.456V208Z" fill="white"/>
<path d="M300.816 147.733C300.529 145.743 298.966 144.18 296.977 143.893V142.715C296.977 139.466 294.507 136.821 291.471 136.821C288.523 136.821 286.054 139.386 285.965 142.539H286.003L285.965 142.546V155.31C285.965 159.391 282.915 162.705 279.164 162.705C275.414 162.705 272.363 159.386 272.363 155.31V154.205C273.303 154.205 274.307 153.524 274.307 151.614V149.985C278.464 148.922 281.431 145.352 281.431 141.305V139.955H280.136L280.109 131.525C280.099 129.964 278.98 128.632 277.444 128.354C277.113 127.34 276.022 126.785 275.007 127.117C273.992 127.448 273.438 128.539 273.769 129.554C274.101 130.569 275.192 131.123 276.207 130.791C276.75 130.614 277.187 130.205 277.4 129.675C278.23 129.911 278.805 130.666 278.811 131.529L278.841 139.955H277.545V141.324C277.494 143.577 275.983 145.535 273.817 146.157C272.658 146.524 271.413 146.524 270.254 146.157C268.091 145.533 266.584 143.575 266.534 141.324V139.955H264.591V131.535C264.595 130.659 265.183 129.894 266.029 129.667C266.423 130.67 267.556 131.164 268.56 130.77C269.563 130.376 270.057 129.242 269.663 128.239C269.269 127.235 268.135 126.741 267.132 127.136C266.588 127.349 266.169 127.795 265.989 128.351C264.436 128.616 263.3 129.96 263.295 131.535V139.955H262V141.302C262 145.354 264.97 148.924 269.125 149.985V151.614C269.125 153.524 270.129 154.205 271.068 154.205V155.31C271.068 160.103 274.7 164 279.164 164C283.629 164 287.261 160.099 287.261 155.31V142.577C287.326 140.119 289.216 138.119 291.471 138.119C293.792 138.119 295.681 140.181 295.681 142.717V143.893C293.203 144.251 291.484 146.55 291.841 149.028C292.199 151.507 294.498 153.226 296.977 152.868C299.455 152.51 301.174 150.211 300.816 147.733ZM275.602 129.591C275.244 129.591 274.954 129.301 274.954 128.944C274.954 128.586 275.244 128.296 275.602 128.296C275.96 128.296 276.25 128.586 276.25 128.944C276.25 129.301 275.96 129.591 275.602 129.591ZM267.829 128.296C268.187 128.296 268.477 128.586 268.477 128.944C268.477 129.301 268.187 129.591 267.829 129.591C267.472 129.591 267.182 129.301 267.182 128.944C267.182 128.586 267.472 128.296 267.829 128.296ZM263.295 141.302V141.25H265.239V141.324C265.287 144.139 267.16 146.596 269.862 147.389C271.278 147.837 272.797 147.837 274.213 147.389C276.916 146.597 278.791 144.14 278.841 141.324V141.25H280.136V141.302C280.136 144.905 277.359 148.076 273.529 148.843C272.63 149.023 271.709 149.068 270.797 148.977C270.496 148.948 270.198 148.903 269.902 148.842C266.073 148.076 263.295 144.905 263.295 141.302ZM271.068 152.909C270.485 152.909 270.42 152.002 270.42 151.614V150.239C270.472 150.246 270.525 150.248 270.578 150.254C270.642 150.261 270.707 150.266 270.772 150.272C271.078 150.299 271.387 150.317 271.699 150.318H271.731C272.042 150.318 272.35 150.299 272.655 150.272C272.72 150.266 272.788 150.261 272.855 150.254C272.906 150.248 272.959 150.246 273.011 150.239V151.614C273.011 152.002 272.946 152.909 272.363 152.909H271.068ZM296.329 151.614C294.54 151.614 293.09 150.164 293.09 148.375C293.09 146.587 294.54 145.137 296.329 145.137C298.117 145.137 299.567 146.587 299.567 148.375C299.565 150.163 298.117 151.612 296.329 151.614Z" fill="white"/>
<path d="M296.329 146.432C295.256 146.432 294.386 147.302 294.386 148.375C294.386 149.448 295.256 150.318 296.329 150.318C297.402 150.318 298.272 149.448 298.272 148.375C298.272 147.302 297.402 146.432 296.329 146.432ZM296.329 149.023C295.971 149.023 295.681 148.733 295.681 148.375C295.681 148.018 295.971 147.728 296.329 147.728C296.687 147.728 296.977 148.018 296.977 148.375C296.977 148.733 296.687 149.023 296.329 149.023Z" fill="white"/>
<defs>
<filter id="filter0_d" x="0" y="0" width="563" height="285" filterUnits="userSpaceOnUse" color-interpolation-filters="sRGB">
<feFlood flood-opacity="0" result="BackgroundImageFix"/>
<feColorMatrix in="SourceAlpha" type="matrix" values="0 0 0 0 0 0 0 0 0 0 0 0 0 0 0 0 0 0 127 0"/>
<feOffset dy="4"/>
<feGaussianBlur stdDeviation="12.5"/>
<feColorMatrix type="matrix" values="0 0 0 0 0 0 0 0 0 0 0 0 0 0 0 0 0 0 0.25 0"/>
<feBlend mode="normal" in2="BackgroundImageFix" result="effect1_dropShadow"/>
<feBlend mode="normal" in="SourceGraphic" in2="effect1_dropShadow" result="shape"/>
</filter>
<linearGradient id="paint0_linear" x1="25.0195" y1="137.049" x2="537.686" y2="150.866" gradientUnits="userSpaceOnUse">
<stop stop-color="#70A335"/>
<stop offset="1" stop-color="#92C755"/>
</linearGradient>
</defs>
</svg>
