<svg width="100%" height="100%" viewBox="0 0 496 227" fill="none" xmlns="http://www.w3.org/2000/svg">
<path d="M352.825 14.7395C329.533 44.2258 293.488 63.1713 252.998 63.1713C206.187 63.1713 165.308 37.8606 143.232 0.195312L48.0757 2.72991L0.610352 80.94C50.849 168.227 145.059 227.001 252.998 227.001C354.227 227.001 443.372 175.3 495.504 96.8731L401.954 94.8295L352.825 14.7395Z" fill="#258DBB"/>
<path opacity="0.7" d="M193.775 164H191.369L187.746 158.935V164H185.627V154.006H187.746V158.846L191.328 154.006H193.584L189.94 158.805L193.775 164ZM204.104 158.989C204.104 160.644 203.694 161.915 202.874 162.804C202.054 163.692 200.878 164.137 199.347 164.137C197.815 164.137 196.64 163.692 195.819 162.804C194.999 161.915 194.589 160.639 194.589 158.976C194.589 157.312 194.999 156.043 195.819 155.168C196.644 154.288 197.825 153.849 199.36 153.849C200.896 153.849 202.07 154.291 202.881 155.175C203.697 156.059 204.104 157.33 204.104 158.989ZM196.811 158.989C196.811 160.106 197.022 160.947 197.446 161.512C197.87 162.077 198.504 162.359 199.347 162.359C201.037 162.359 201.883 161.236 201.883 158.989C201.883 156.738 201.042 155.612 199.36 155.612C198.517 155.612 197.882 155.897 197.453 156.467C197.025 157.032 196.811 157.873 196.811 158.989ZM214.365 164H212.253V159.687H208.295V164H206.176V154.006H208.295V157.923H212.253V154.006H214.365V164ZM221.14 155.626C220.342 155.626 219.725 155.927 219.287 156.528C218.85 157.125 218.631 157.959 218.631 159.03C218.631 161.259 219.467 162.373 221.14 162.373C221.841 162.373 222.691 162.198 223.689 161.847V163.624C222.869 163.966 221.953 164.137 220.941 164.137C219.488 164.137 218.376 163.697 217.605 162.817C216.835 161.933 216.45 160.666 216.45 159.017C216.45 157.978 216.639 157.068 217.018 156.289C217.396 155.505 217.938 154.906 218.645 154.491C219.355 154.072 220.187 153.862 221.14 153.862C222.11 153.862 223.086 154.097 224.065 154.566L223.382 156.289C223.008 156.111 222.632 155.956 222.254 155.824C221.876 155.692 221.504 155.626 221.14 155.626ZM233.704 154.006L230.614 161.074C230.227 161.963 229.862 162.601 229.521 162.988C229.183 163.376 228.782 163.665 228.317 163.856C227.853 164.043 227.287 164.137 226.622 164.137C226.052 164.137 225.521 164.068 225.029 163.932V162.113C225.43 162.277 225.929 162.359 226.526 162.359C226.905 162.359 227.21 162.273 227.442 162.1C227.675 161.922 227.868 161.617 228.023 161.184L224.564 154.006H226.807L229.268 159.577H229.336L229.459 159.235L231.523 154.006H233.704ZM242.878 164H240.766V155.77H238.318L238.209 156.686C237.926 159.014 237.676 160.65 237.457 161.594C237.243 162.533 236.928 163.193 236.514 163.576C236.099 163.959 235.538 164.146 234.832 164.137C234.449 164.137 234.112 164.087 233.82 163.986V162.25C234.085 162.341 234.333 162.387 234.565 162.387C234.807 162.387 234.998 162.277 235.14 162.059C235.281 161.835 235.413 161.425 235.536 160.828C235.664 160.227 235.83 159.244 236.035 157.882C236.245 156.515 236.423 155.223 236.568 154.006H242.878V164ZM252.441 160.876C252.441 162.959 251.065 164 248.312 164H245.4V154.006H247.52V157.841H248.354C249.657 157.841 250.664 158.105 251.375 158.634C252.086 159.162 252.441 159.91 252.441 160.876ZM247.52 162.264H248.23C248.946 162.264 249.47 162.15 249.803 161.922C250.135 161.689 250.302 161.341 250.302 160.876C250.302 160.416 250.133 160.085 249.796 159.885C249.459 159.68 248.88 159.577 248.06 159.577H247.52V162.264ZM258.197 164H256.078V155.77H253.364V154.006H260.911V155.77H258.197V164ZM268.567 164L267.843 161.621H264.199L263.475 164H261.191L264.719 153.965H267.31L270.851 164H268.567ZM267.337 159.844C266.667 157.688 266.289 156.469 266.202 156.187C266.12 155.904 266.061 155.681 266.024 155.517C265.874 156.1 265.443 157.542 264.732 159.844H267.337ZM280.024 162.318H281.515V166.912H279.471V164H272.115V154.006H274.234V162.236H277.912V154.006H280.024V162.318ZM283.053 154.006H284.96V158.832L284.933 160.124L284.864 161.594H284.905L289.52 154.006H292.056V164H290.169V159.201C290.169 158.559 290.21 157.606 290.292 156.344H290.237L285.603 164H283.053V154.006ZM297.941 160.165L295.604 164H293.252L296.096 159.604C295.531 159.377 295.098 159.026 294.797 158.552C294.496 158.073 294.346 157.51 294.346 156.863C294.346 155.947 294.669 155.243 295.316 154.751C295.968 154.254 296.902 154.006 298.119 154.006H301.373V164H299.254V160.165H297.941ZM299.254 155.742H298.208C297.661 155.742 297.237 155.84 296.937 156.036C296.636 156.232 296.485 156.558 296.485 157.014C296.485 157.456 296.631 157.804 296.923 158.06C297.215 158.315 297.661 158.442 298.263 158.442H299.254V155.742ZM203.968 173.006H205.875V177.832L205.848 179.124L205.779 180.594H205.82L210.435 173.006H212.971V183H211.084V178.201C211.084 177.559 211.125 176.606 211.207 175.344H211.152L206.518 183H203.968V173.006ZM227.039 183H224.927V174.77H222.479L222.37 175.686C222.088 178.014 221.837 179.65 221.618 180.594C221.404 181.533 221.09 182.193 220.675 182.576C220.26 182.959 219.7 183.146 218.993 183.137C218.61 183.137 218.273 183.087 217.981 182.986V181.25C218.246 181.341 218.494 181.387 218.727 181.387C218.968 181.387 219.16 181.277 219.301 181.059C219.442 180.835 219.574 180.425 219.697 179.828C219.825 179.227 219.991 178.244 220.196 176.882C220.406 175.515 220.584 174.223 220.729 173.006H227.039V183ZM235.317 183H229.562V173.006H235.317V174.742H231.681V176.937H235.064V178.673H231.681V181.25H235.317V183ZM245.086 183H242.967V179.138C242.265 179.375 241.679 179.536 241.21 179.623C240.745 179.71 240.301 179.753 239.877 179.753C238.924 179.753 238.188 179.525 237.669 179.069C237.154 178.609 236.896 177.964 236.896 177.135V173.006H239.009V176.533C239.009 177.016 239.12 177.381 239.344 177.627C239.567 177.868 239.945 177.989 240.479 177.989C240.852 177.989 241.224 177.953 241.593 177.88C241.966 177.802 242.424 177.67 242.967 177.483V173.006H245.086V183ZM253.364 183H247.608V173.006H253.364V174.742H249.728V176.937H253.111V178.673H249.728V181.25H253.364V183ZM263.646 183H261.533V178.687H257.575V183H255.456V173.006H257.575V176.923H261.533V173.006H263.646V183ZM266.175 173.006H268.082V177.832L268.055 179.124L267.986 180.594H268.027L272.642 173.006H275.178V183H273.291V178.201C273.291 177.559 273.332 176.606 273.414 175.344H273.359L268.725 183H266.175V173.006ZM283.456 183H277.7V173.006H283.456V174.742H279.819V176.937H283.203V178.673H279.819V181.25H283.456V183Z" fill="white"/>
<g opacity="0.7">
<path d="M262.816 122.733C262.529 120.743 260.966 119.18 258.977 118.893V117.715C258.977 114.466 256.507 111.821 253.471 111.821C250.523 111.821 248.054 114.386 247.965 117.539H248.003L247.965 117.546V130.31C247.965 134.391 244.915 137.705 241.164 137.705C237.414 137.705 234.363 134.386 234.363 130.31V129.205C235.303 129.205 236.307 128.524 236.307 126.614V124.985C240.464 123.922 243.431 120.352 243.431 116.305V114.955H242.136L242.109 106.525C242.099 104.964 240.98 103.632 239.444 103.354C239.113 102.34 238.022 101.785 237.007 102.117C235.992 102.448 235.438 103.539 235.769 104.554C236.101 105.569 237.192 106.123 238.207 105.791C238.75 105.614 239.187 105.205 239.4 104.675C240.23 104.911 240.805 105.666 240.811 106.529L240.841 114.955H239.545V116.324C239.494 118.577 237.983 120.535 235.817 121.157C234.658 121.524 233.413 121.524 232.254 121.157C230.091 120.533 228.584 118.575 228.534 116.324V114.955H226.591V106.535C226.595 105.659 227.183 104.894 228.029 104.667C228.423 105.67 229.556 106.164 230.56 105.77C231.563 105.376 232.057 104.242 231.663 103.239C231.269 102.235 230.135 101.741 229.132 102.136C228.588 102.349 228.169 102.795 227.989 103.351C226.436 103.616 225.3 104.96 225.295 106.535V114.955H224V116.302C224 120.354 226.97 123.924 231.125 124.985V126.614C231.125 128.524 232.129 129.205 233.068 129.205V130.31C233.068 135.103 236.7 139 241.164 139C245.629 139 249.261 135.099 249.261 130.31V117.577C249.326 115.119 251.216 113.119 253.471 113.119C255.792 113.119 257.681 115.181 257.681 117.717V118.893C255.203 119.251 253.484 121.55 253.841 124.028C254.199 126.507 256.498 128.226 258.977 127.868C261.455 127.51 263.174 125.211 262.816 122.733ZM237.602 104.591C237.244 104.591 236.954 104.301 236.954 103.944C236.954 103.586 237.244 103.296 237.602 103.296C237.96 103.296 238.25 103.586 238.25 103.944C238.25 104.301 237.96 104.591 237.602 104.591ZM229.829 103.296C230.187 103.296 230.477 103.586 230.477 103.944C230.477 104.301 230.187 104.591 229.829 104.591C229.472 104.591 229.182 104.301 229.182 103.944C229.182 103.586 229.472 103.296 229.829 103.296ZM225.295 116.302V116.25H227.239V116.324C227.287 119.139 229.16 121.596 231.862 122.389C233.278 122.837 234.797 122.837 236.213 122.389C238.916 121.597 240.791 119.14 240.841 116.324V116.25H242.136V116.302C242.136 119.905 239.359 123.076 235.529 123.843C234.63 124.023 233.709 124.068 232.797 123.977C232.496 123.948 232.198 123.903 231.902 123.842C228.073 123.076 225.295 119.905 225.295 116.302ZM233.068 127.909C232.485 127.909 232.42 127.002 232.42 126.614V125.239C232.472 125.246 232.525 125.248 232.578 125.254C232.642 125.261 232.707 125.266 232.772 125.272C233.078 125.299 233.387 125.317 233.699 125.318H233.731C234.042 125.318 234.35 125.299 234.655 125.272C234.72 125.266 234.788 125.261 234.855 125.254C234.906 125.248 234.959 125.246 235.011 125.239V126.614C235.011 127.002 234.946 127.909 234.363 127.909H233.068ZM258.329 126.614C256.54 126.614 255.09 125.164 255.09 123.375C255.09 121.587 256.54 120.137 258.329 120.137C260.117 120.137 261.567 121.587 261.567 123.375C261.565 125.163 260.117 126.612 258.329 126.614Z" fill="white"/>
<path d="M258.329 121.432C257.256 121.432 256.386 122.302 256.386 123.375C256.386 124.448 257.256 125.318 258.329 125.318C259.402 125.318 260.272 124.448 260.272 123.375C260.272 122.302 259.402 121.432 258.329 121.432ZM258.329 124.023C257.971 124.023 257.681 123.733 257.681 123.375C257.681 123.018 257.971 122.728 258.329 122.728C258.687 122.728 258.977 123.018 258.977 123.375C258.977 123.733 258.687 124.023 258.329 124.023Z" fill="white"/>
</g>
</svg>
