<svg width="100%" height="100%" viewBox="0 0 275 436" fill="none" xmlns="http://www.w3.org/2000/svg">
<path d="M0.00442213 164.545C62.7683 172.282 111.377 225.879 111.377 290.888C111.377 314.307 105.042 336.234 94.0375 355.087L142.284 433.936L236.446 436C260.973 393.272 275 343.723 275 290.888C275 135.541 153.722 8.60503 0.905646 0L45.2163 80.975L0 164.545H0.00442213Z" fill="#258DBB"/>
<g opacity="0.7">
<path d="M184.021 211.209H180.938V212.75H184.021V211.209Z" fill="white"/>
<path d="M185.563 214.291H180.938V215.833H185.563V214.291Z" fill="white"/>
<path d="M210.307 217.963L201.75 209.406V190.396C201.75 189.119 200.715 188.083 199.438 188.083H183.944C183.587 186.324 182.031 185 180.167 185C178.302 185 176.747 186.324 176.39 188.083H176.313C175.035 188.083 174 189.119 174 190.396V219.687C174 220.965 175.035 222 176.313 222H199.438C200.715 222 201.75 220.965 201.75 219.687V216.094L206.963 221.306C207.406 221.751 208.008 222.001 208.636 222C209.264 222 209.865 221.75 210.309 221.307C211.231 220.383 211.23 218.886 210.307 217.963ZM180.167 186.542C181.174 186.542 182.03 187.185 182.347 188.083H177.986C178.304 187.185 179.16 186.542 180.167 186.542ZM200.209 219.687C200.209 220.113 199.863 220.458 199.438 220.458H176.313C175.887 220.458 175.542 220.113 175.542 219.687V190.396C175.542 189.97 175.887 189.625 176.313 189.625H182.479V198.104C182.479 198.53 182.134 198.875 181.708 198.875C181.283 198.875 180.937 198.53 180.937 198.104V191.167H179.396V198.104C179.396 199.381 180.431 200.417 181.708 200.417C182.986 200.417 184.021 199.381 184.021 198.104V189.625H199.438C199.863 189.625 200.209 189.97 200.209 190.396V207.864L197.896 205.551V191.937C197.896 191.512 197.551 191.167 197.125 191.167H185.563V192.708H196.354V204.178L192.074 202.042C191.857 201.933 191.601 201.933 191.383 202.042C191.342 202.063 191.304 202.088 191.268 202.114L191.267 202.113L189.079 203.751L187.846 199.435C187.81 199.308 187.742 199.193 187.649 199.101C187.348 198.8 186.86 198.8 186.559 199.101L184.473 201.187H178.625C178.199 201.187 177.854 201.533 177.854 201.958V218.146C177.854 218.572 178.199 218.917 178.625 218.917H197.125C197.551 218.917 197.896 218.572 197.896 218.146V212.24L200.209 214.552V219.687ZM194.194 205.937L193.451 204.452L194.937 205.195L194.194 205.937ZM196.354 210.698V217.375H179.396V202.729H184.792C184.996 202.729 185.191 202.649 185.336 202.505L186.724 201.117L187.904 205.253C187.93 205.344 187.973 205.429 188.029 205.504C188.285 205.845 188.768 205.914 189.108 205.658L191.451 203.901L193.293 207.585L193.295 207.584C193.331 207.656 193.379 207.723 193.438 207.783L196.354 210.698ZM195.073 207.238L196.238 206.073L206.421 216.256L205.256 217.421L195.073 207.238ZM209.218 220.218C208.896 220.54 208.375 220.54 208.053 220.218L206.346 218.511L207.511 217.346L209.218 219.053C209.54 219.375 209.54 219.896 209.218 220.218Z" fill="white"/>
</g>
<path opacity="0.7" d="M137.442 245.236H138.215C138.876 243.915 139.397 242.595 139.78 241.278C140.163 239.957 140.448 238.533 140.635 237.006H146.459V245.236H147.792V249.912H145.748V247H139.486V249.912H137.442V245.236ZM142.316 238.77C142.171 239.813 141.927 240.918 141.585 242.085C141.248 243.252 140.867 244.302 140.443 245.236H144.347V238.77H142.316ZM149.337 237.006H151.244V241.832L151.217 243.124L151.148 244.594H151.189L155.804 237.006H158.34V247H156.453V242.201C156.453 241.559 156.494 240.606 156.576 239.344H156.521L151.887 247H149.337V237.006ZM166.98 247L166.256 244.621H162.612L161.888 247H159.604L163.132 236.965H165.723L169.264 247H166.98ZM165.75 242.844C165.08 240.688 164.702 239.469 164.615 239.187C164.533 238.904 164.474 238.681 164.438 238.517C164.287 239.1 163.856 240.542 163.146 242.844H165.75ZM176.845 237.006V238.756H172.647V247H170.528V237.006H176.845ZM186.579 247H184.467V242.687H180.509V247H178.39V237.006H180.509V240.923H184.467V237.006H186.579V247ZM198.18 241.989C198.18 243.644 197.77 244.915 196.949 245.804C196.129 246.692 194.953 247.137 193.422 247.137C191.891 247.137 190.715 246.692 189.895 245.804C189.074 244.915 188.664 243.639 188.664 241.976C188.664 240.312 189.074 239.043 189.895 238.168C190.719 237.288 191.9 236.849 193.436 236.849C194.971 236.849 196.145 237.291 196.956 238.175C197.772 239.059 198.18 240.33 198.18 241.989ZM190.886 241.989C190.886 243.106 191.098 243.947 191.521 244.512C191.945 245.077 192.579 245.359 193.422 245.359C195.113 245.359 195.958 244.236 195.958 241.989C195.958 239.738 195.117 238.612 193.436 238.612C192.592 238.612 191.957 238.897 191.528 239.467C191.1 240.032 190.886 240.873 190.886 241.989ZM204.496 238.626C203.699 238.626 203.081 238.927 202.644 239.528C202.206 240.125 201.987 240.959 201.987 242.03C201.987 244.259 202.824 245.373 204.496 245.373C205.198 245.373 206.048 245.198 207.046 244.847V246.624C206.226 246.966 205.31 247.137 204.298 247.137C202.844 247.137 201.732 246.697 200.962 245.817C200.192 244.933 199.807 243.666 199.807 242.017C199.807 240.978 199.996 240.068 200.374 239.289C200.752 238.505 201.295 237.906 202.001 237.491C202.712 237.072 203.544 236.862 204.496 236.862C205.467 236.862 206.442 237.097 207.422 237.566L206.738 239.289C206.365 239.111 205.989 238.956 205.61 238.824C205.232 238.692 204.861 238.626 204.496 238.626ZM213.034 247H210.915V238.77H208.201V237.006H215.748V238.77H213.034V247ZM217.286 237.006H219.193V241.832L219.166 243.124L219.098 244.594H219.139L223.753 237.006H226.289V247H224.402V242.201C224.402 241.559 224.443 240.606 224.525 239.344H224.471L219.836 247H217.286V237.006ZM236.96 247H234.554L230.931 241.935V247H228.812V237.006H230.931V241.846L234.513 237.006H236.769L233.125 241.805L236.96 247ZM244.336 247L243.611 244.621H239.968L239.243 247H236.96L240.487 236.965H243.078L246.619 247H244.336ZM243.105 242.844C242.436 240.688 242.057 239.469 241.971 239.187C241.889 238.904 241.829 238.681 241.793 238.517C241.643 239.1 241.212 240.542 240.501 242.844H243.105ZM148.79 256.006H150.697V260.832L150.67 262.124L150.602 263.594H150.643L155.257 256.006H157.793V266H155.906V261.201C155.906 260.559 155.947 259.606 156.029 258.344H155.975L151.34 266H148.79V256.006ZM170.07 266L169.346 263.621H165.702L164.978 266H162.694L166.222 255.965H168.812L172.354 266H170.07ZM168.84 261.844C168.17 259.688 167.792 258.469 167.705 258.187C167.623 257.904 167.564 257.681 167.527 257.517C167.377 258.1 166.946 259.542 166.235 261.844H168.84ZM181.808 266H179.695V261.687H175.737V266H173.618V256.006H175.737V259.923H179.695V256.006H181.808V266ZM190.455 266L189.73 263.621H186.087L185.362 266H183.079L186.606 255.965H189.197L192.738 266H190.455ZM189.225 261.844C188.555 259.688 188.176 258.469 188.09 258.187C188.008 257.904 187.949 257.681 187.912 257.517C187.762 258.1 187.331 259.542 186.62 261.844H189.225ZM201.912 266H199.8V257.77H197.353L197.243 258.686C196.961 261.014 196.71 262.65 196.491 263.594C196.277 264.533 195.963 265.193 195.548 265.576C195.133 265.959 194.573 266.146 193.866 266.137C193.483 266.137 193.146 266.087 192.854 265.986V264.25C193.119 264.341 193.367 264.387 193.6 264.387C193.841 264.387 194.033 264.277 194.174 264.059C194.315 263.835 194.447 263.425 194.57 262.828C194.698 262.227 194.864 261.244 195.069 259.882C195.279 258.515 195.457 257.223 195.603 256.006H201.912V266ZM204.435 256.006H206.342V260.832L206.314 262.124L206.246 263.594H206.287L210.901 256.006H213.438V266H211.551V261.201C211.551 260.559 211.592 259.606 211.674 258.344H211.619L206.984 266H204.435V256.006ZM222.864 258.344C222.864 258.986 222.636 259.517 222.181 259.937C221.725 260.356 221.107 260.622 220.328 260.736V260.777C221.244 260.868 221.946 261.121 222.434 261.536C222.926 261.951 223.172 262.491 223.172 263.156C223.172 264.077 222.798 264.804 222.051 265.337C221.308 265.87 220.278 266.137 218.961 266.137C217.493 266.137 216.315 265.957 215.427 265.597V263.819C215.855 264.024 216.356 264.186 216.931 264.305C217.509 264.419 218.049 264.476 218.551 264.476C220.232 264.476 221.073 263.986 221.073 263.006C221.073 262.564 220.802 262.224 220.26 261.987C219.722 261.75 218.924 261.632 217.867 261.632H216.931V259.978H217.771C218.829 259.978 219.599 259.877 220.082 259.677C220.565 259.476 220.807 259.144 220.807 258.679C220.807 258.337 220.654 258.066 220.349 257.865C220.048 257.66 219.594 257.558 218.988 257.558C218.049 257.558 217.143 257.829 216.268 258.371L215.345 256.956C215.914 256.578 216.518 256.302 217.156 256.129C217.794 255.951 218.503 255.862 219.282 255.862C220.371 255.862 221.24 256.09 221.887 256.546C222.538 257.002 222.864 257.601 222.864 258.344ZM231.874 262.876C231.874 263.915 231.528 264.697 230.835 265.221C230.147 265.74 229.126 266 227.772 266H225.038V256.006H227.157V259.841H227.841C229.121 259.841 230.113 260.107 230.814 260.641C231.521 261.169 231.874 261.914 231.874 262.876ZM227.157 264.264H227.711C228.408 264.264 228.919 264.15 229.242 263.922C229.566 263.689 229.728 263.341 229.728 262.876C229.728 262.411 229.57 262.078 229.256 261.878C228.946 261.677 228.399 261.577 227.615 261.577H227.157V264.264ZM235.203 266H233.091V256.006H235.203V266Z" fill="white"/>
</svg>
