<svg width="100%" height="100%" viewBox="0 0 342 513" fill="none" xmlns="http://www.w3.org/2000/svg">
<g filter="url(#filter0_d)">
<path d="M25.0047 184.735C91.6485 192.951 143.263 249.867 143.263 318.902C143.263 343.771 136.536 367.056 124.851 387.076L176.08 470.808L276.062 473C302.106 427.626 317 375.008 317 318.902C317 153.935 188.225 19.1379 25.9616 10L73.0115 95.9895L25 184.735H25.0047Z" fill="url(#paint0_linear)"/>
</g>
<path d="M209.021 248.209H205.938V249.75H209.021V248.209Z" fill="white"/>
<path d="M210.563 251.291H205.938V252.833H210.563V251.291Z" fill="white"/>
<path d="M235.307 254.963L226.75 246.406V227.396C226.75 226.119 225.715 225.083 224.438 225.083H208.944C208.587 223.324 207.031 222 205.167 222C203.302 222 201.747 223.324 201.39 225.083H201.313C200.035 225.083 199 226.119 199 227.396V256.687C199 257.965 200.035 259 201.313 259H224.438C225.715 259 226.75 257.965 226.75 256.687V253.094L231.963 258.306C232.406 258.751 233.008 259.001 233.636 259C234.264 259 234.865 258.75 235.309 258.307C236.231 257.383 236.23 255.886 235.307 254.963ZM205.167 223.542C206.174 223.542 207.03 224.185 207.347 225.083H202.986C203.304 224.185 204.16 223.542 205.167 223.542ZM225.209 256.687C225.209 257.113 224.863 257.458 224.438 257.458H201.313C200.887 257.458 200.542 257.113 200.542 256.687V227.396C200.542 226.97 200.887 226.625 201.313 226.625H207.479V235.104C207.479 235.53 207.134 235.875 206.708 235.875C206.283 235.875 205.937 235.53 205.937 235.104V228.167H204.396V235.104C204.396 236.381 205.431 237.417 206.708 237.417C207.986 237.417 209.021 236.381 209.021 235.104V226.625H224.438C224.863 226.625 225.209 226.97 225.209 227.396V244.864L222.896 242.551V228.937C222.896 228.512 222.551 228.167 222.125 228.167H210.563V229.708H221.354V241.178L217.074 239.042C216.857 238.933 216.601 238.933 216.383 239.042C216.342 239.063 216.304 239.088 216.268 239.114L216.267 239.113L214.079 240.751L212.846 236.435C212.81 236.308 212.742 236.193 212.649 236.101C212.348 235.8 211.86 235.8 211.559 236.101L209.473 238.187H203.625C203.199 238.187 202.854 238.533 202.854 238.958V255.146C202.854 255.572 203.199 255.917 203.625 255.917H222.125C222.551 255.917 222.896 255.572 222.896 255.146V249.24L225.209 251.552V256.687ZM219.194 242.937L218.451 241.452L219.937 242.195L219.194 242.937ZM221.354 247.698V254.375H204.396V239.729H209.792C209.996 239.729 210.191 239.649 210.336 239.505L211.724 238.117L212.904 242.253C212.93 242.344 212.973 242.429 213.029 242.504C213.285 242.845 213.768 242.914 214.108 242.658L216.451 240.901L218.293 244.585L218.295 244.584C218.331 244.656 218.379 244.723 218.438 244.783L221.354 247.698ZM220.073 244.238L221.238 243.073L231.421 253.256L230.256 254.421L220.073 244.238ZM234.218 257.218C233.896 257.54 233.375 257.54 233.053 257.218L231.346 255.511L232.511 254.346L234.218 256.053C234.54 256.375 234.54 256.896 234.218 257.218Z" fill="white"/>
<path d="M162.442 282.236H163.215C163.876 280.915 164.397 279.595 164.78 278.278C165.163 276.957 165.448 275.533 165.635 274.006H171.459V282.236H172.792V286.912H170.748V284H164.486V286.912H162.442V282.236ZM167.316 275.77C167.171 276.813 166.927 277.918 166.585 279.085C166.248 280.252 165.867 281.302 165.443 282.236H169.347V275.77H167.316ZM174.337 274.006H176.244V278.832L176.217 280.124L176.148 281.594H176.189L180.804 274.006H183.34V284H181.453V279.201C181.453 278.559 181.494 277.606 181.576 276.344H181.521L176.887 284H174.337V274.006ZM191.98 284L191.256 281.621H187.612L186.888 284H184.604L188.132 273.965H190.723L194.264 284H191.98ZM190.75 279.844C190.08 277.688 189.702 276.469 189.615 276.187C189.533 275.904 189.474 275.681 189.438 275.517C189.287 276.1 188.856 277.542 188.146 279.844H190.75ZM201.845 274.006V275.756H197.647V284H195.528V274.006H201.845ZM211.579 284H209.467V279.687H205.509V284H203.39V274.006H205.509V277.923H209.467V274.006H211.579V284ZM223.18 278.989C223.18 280.644 222.77 281.915 221.949 282.804C221.129 283.692 219.953 284.137 218.422 284.137C216.891 284.137 215.715 283.692 214.895 282.804C214.074 281.915 213.664 280.639 213.664 278.976C213.664 277.312 214.074 276.043 214.895 275.168C215.719 274.288 216.9 273.849 218.436 273.849C219.971 273.849 221.145 274.291 221.956 275.175C222.772 276.059 223.18 277.33 223.18 278.989ZM215.886 278.989C215.886 280.106 216.098 280.947 216.521 281.512C216.945 282.077 217.579 282.359 218.422 282.359C220.113 282.359 220.958 281.236 220.958 278.989C220.958 276.738 220.117 275.612 218.436 275.612C217.592 275.612 216.957 275.897 216.528 276.467C216.1 277.032 215.886 277.873 215.886 278.989ZM229.496 275.626C228.699 275.626 228.081 275.927 227.644 276.528C227.206 277.125 226.987 277.959 226.987 279.03C226.987 281.259 227.824 282.373 229.496 282.373C230.198 282.373 231.048 282.198 232.046 281.847V283.624C231.226 283.966 230.31 284.137 229.298 284.137C227.844 284.137 226.732 283.697 225.962 282.817C225.192 281.933 224.807 280.666 224.807 279.017C224.807 277.978 224.996 277.068 225.374 276.289C225.752 275.505 226.295 274.906 227.001 274.491C227.712 274.072 228.544 273.862 229.496 273.862C230.467 273.862 231.442 274.097 232.422 274.566L231.738 276.289C231.365 276.111 230.989 275.956 230.61 275.824C230.232 275.692 229.861 275.626 229.496 275.626ZM238.034 284H235.915V275.77H233.201V274.006H240.748V275.77H238.034V284ZM242.286 274.006H244.193V278.832L244.166 280.124L244.098 281.594H244.139L248.753 274.006H251.289V284H249.402V279.201C249.402 278.559 249.443 277.606 249.525 276.344H249.471L244.836 284H242.286V274.006ZM261.96 284H259.554L255.931 278.935V284H253.812V274.006H255.931V278.846L259.513 274.006H261.769L258.125 278.805L261.96 284ZM269.336 284L268.611 281.621H264.968L264.243 284H261.96L265.487 273.965H268.078L271.619 284H269.336ZM268.105 279.844C267.436 277.688 267.057 276.469 266.971 276.187C266.889 275.904 266.829 275.681 266.793 275.517C266.643 276.1 266.212 277.542 265.501 279.844H268.105ZM173.79 293.006H175.697V297.832L175.67 299.124L175.602 300.594H175.643L180.257 293.006H182.793V303H180.906V298.201C180.906 297.559 180.947 296.606 181.029 295.344H180.975L176.34 303H173.79V293.006ZM195.07 303L194.346 300.621H190.702L189.978 303H187.694L191.222 292.965H193.812L197.354 303H195.07ZM193.84 298.844C193.17 296.688 192.792 295.469 192.705 295.187C192.623 294.904 192.564 294.681 192.527 294.517C192.377 295.1 191.946 296.542 191.235 298.844H193.84ZM206.808 303H204.695V298.687H200.737V303H198.618V293.006H200.737V296.923H204.695V293.006H206.808V303ZM215.455 303L214.73 300.621H211.087L210.362 303H208.079L211.606 292.965H214.197L217.738 303H215.455ZM214.225 298.844C213.555 296.688 213.176 295.469 213.09 295.187C213.008 294.904 212.949 294.681 212.912 294.517C212.762 295.1 212.331 296.542 211.62 298.844H214.225ZM226.912 303H224.8V294.77H222.353L222.243 295.686C221.961 298.014 221.71 299.65 221.491 300.594C221.277 301.533 220.963 302.193 220.548 302.576C220.133 302.959 219.573 303.146 218.866 303.137C218.483 303.137 218.146 303.087 217.854 302.986V301.25C218.119 301.341 218.367 301.387 218.6 301.387C218.841 301.387 219.033 301.277 219.174 301.059C219.315 300.835 219.447 300.425 219.57 299.828C219.698 299.227 219.864 298.244 220.069 296.882C220.279 295.515 220.457 294.223 220.603 293.006H226.912V303ZM229.435 293.006H231.342V297.832L231.314 299.124L231.246 300.594H231.287L235.901 293.006H238.438V303H236.551V298.201C236.551 297.559 236.592 296.606 236.674 295.344H236.619L231.984 303H229.435V293.006ZM247.864 295.344C247.864 295.986 247.636 296.517 247.181 296.937C246.725 297.356 246.107 297.622 245.328 297.736V297.777C246.244 297.868 246.946 298.121 247.434 298.536C247.926 298.951 248.172 299.491 248.172 300.156C248.172 301.077 247.798 301.804 247.051 302.337C246.308 302.87 245.278 303.137 243.961 303.137C242.493 303.137 241.315 302.957 240.427 302.597V300.819C240.855 301.024 241.356 301.186 241.931 301.305C242.509 301.419 243.049 301.476 243.551 301.476C245.232 301.476 246.073 300.986 246.073 300.006C246.073 299.564 245.802 299.224 245.26 298.987C244.722 298.75 243.924 298.632 242.867 298.632H241.931V296.978H242.771C243.829 296.978 244.599 296.877 245.082 296.677C245.565 296.476 245.807 296.144 245.807 295.679C245.807 295.337 245.654 295.066 245.349 294.865C245.048 294.66 244.594 294.558 243.988 294.558C243.049 294.558 242.143 294.829 241.268 295.371L240.345 293.956C240.914 293.578 241.518 293.302 242.156 293.129C242.794 292.951 243.503 292.862 244.282 292.862C245.371 292.862 246.24 293.09 246.887 293.546C247.538 294.002 247.864 294.601 247.864 295.344ZM256.874 299.876C256.874 300.915 256.528 301.697 255.835 302.221C255.147 302.74 254.126 303 252.772 303H250.038V293.006H252.157V296.841H252.841C254.121 296.841 255.113 297.107 255.814 297.641C256.521 298.169 256.874 298.914 256.874 299.876ZM252.157 301.264H252.711C253.408 301.264 253.919 301.15 254.242 300.922C254.566 300.689 254.728 300.341 254.728 299.876C254.728 299.411 254.57 299.078 254.256 298.878C253.946 298.677 253.399 298.577 252.615 298.577H252.157V301.264ZM260.203 303H258.091V293.006H260.203V303Z" fill="white"/>
<defs>
<filter id="filter0_d" x="0" y="0" width="342" height="513" filterUnits="userSpaceOnUse" color-interpolation-filters="sRGB">
<feFlood flood-opacity="0" result="BackgroundImageFix"/>
<feColorMatrix in="SourceAlpha" type="matrix" values="0 0 0 0 0 0 0 0 0 0 0 0 0 0 0 0 0 0 127 0"/>
<feOffset dy="15"/>
<feGaussianBlur stdDeviation="12.5"/>
<feColorMatrix type="matrix" values="0 0 0 0 0 0 0 0 0 0 0 0 0 0 0 0 0 0 0.15 0"/>
<feBlend mode="normal" in2="BackgroundImageFix" result="effect1_dropShadow"/>
<feBlend mode="normal" in="SourceGraphic" in2="effect1_dropShadow" result="shape"/>
</filter>
<linearGradient id="paint0_linear" x1="25.0111" y1="238.642" x2="317.016" y2="240.916" gradientUnits="userSpaceOnUse">
<stop stop-color="#70A335"/>
<stop offset="1" stop-color="#92C755"/>
</linearGradient>
</defs>
</svg>
