<svg width="30" height="30" viewBox="0 0 30 30" fill="none" xmlns="http://www.w3.org/2000/svg">
<path d="M29.1393 7.84176C28.5557 7.72163 27.9848 8.09611 27.8641 8.67976C27.8612 8.69372 27.6292 9.70378 26.7846 11.0034L18.9965 3.2154C20.2929 2.37323 21.3025 2.1396 21.3258 2.13442C21.906 2.01113 22.2783 1.442 22.1581 0.860508C22.0372 0.276855 21.4661 -0.0979088 20.8829 0.0225047C20.7764 0.0445158 18.2477 0.590477 15.7575 3.0806C13.2718 5.56613 13.2869 9.39174 13.7447 13.8104C9.41136 13.333 5.69293 13.1451 3.23863 15.5993C0.680738 18.1572 0.053926 20.7472 0.0284622 20.8562C-0.106913 21.4364 0.253608 22.0166 0.834096 22.1521C0.91653 22.1714 0.998963 22.1806 1.0801 22.1806C1.57024 22.1805 2.01377 21.8444 2.12987 21.3465C2.13332 21.332 2.40278 20.2763 3.29747 18.9204L11.0796 26.7025C9.72081 27.5992 8.66443 27.8671 8.65335 27.87C8.07301 28.0053 7.71234 28.5857 7.84786 29.1659C7.9641 29.6638 8.40749 30 8.89763 30C8.97877 30 9.06135 29.9908 9.14378 29.9715C9.25268 29.9461 11.8427 29.3191 14.4005 26.7614C16.8548 24.3072 16.6668 20.5888 16.1896 16.2555C20.6085 16.7131 24.434 16.7282 26.9194 14.2427C29.4095 11.7524 29.9555 9.22371 29.9775 9.11725C30.098 8.53345 29.723 7.9626 29.1393 7.84176ZM26.096 11.9423C25.8859 12.1976 25.6528 12.457 25.3933 12.7166C25.2242 12.8856 25.044 13.0391 24.8523 13.1784L16.8216 5.14763C16.9609 4.95586 17.1144 4.77574 17.2834 4.60671C17.5428 4.34732 17.8023 4.11412 18.0575 3.90408L26.096 11.9423ZM21.8023 14.2353L15.7645 8.19739C15.8527 7.44556 16.0076 6.78177 16.2447 6.19798L23.8019 13.7551C23.2181 13.9922 22.5543 14.1471 21.8023 14.2353ZM8.31038 15.719L14.2808 21.6895C14.2151 22.4413 14.0786 23.1246 13.8415 23.7296L6.27026 16.1582C6.87506 15.9214 7.55841 15.7847 8.31038 15.719ZM9.89345 15.6747C11.1291 15.7001 12.5031 15.8407 13.9907 16.0092C14.1593 17.4967 14.2997 18.8707 14.3252 20.1064L9.89345 15.6747ZM3.98801 17.9834C4.21949 17.7007 4.47686 17.413 4.76444 17.1252C4.9073 16.9824 5.05965 16.8536 5.21933 16.7352L13.2645 24.7805C13.1461 24.9402 13.0173 25.0925 12.8744 25.2353C12.5867 25.523 12.299 25.7802 12.0163 26.0117L3.98801 17.9834ZM15.9416 14.0582C15.7638 12.4074 15.6595 10.9737 15.6729 9.73341L20.2664 14.3268C19.0263 14.3405 17.5924 14.236 15.9416 14.0582Z" fill="url(#paint0_linear)"/>
<defs>
<linearGradient id="paint0_linear" x1="0" y1="2.20588" x2="28.2104" y2="31.7111" gradientUnits="userSpaceOnUse">
<stop stop-color="#258BBC"/>
<stop offset="0.469613" stop-color="#26A7A2"/>
<stop offset="1" stop-color="#26BB91"/>
</linearGradient>
</defs>
</svg>
