<svg width="36" height="30" viewBox="0 0 36 30" fill="none" xmlns="http://www.w3.org/2000/svg">
<path d="M1.11596 15.1557H12.4623L14.2462 6.7513C14.3369 6.3245 14.7168 6.02146 15.1554 6.03484C15.5916 6.04642 15.9572 6.36792 16.0249 6.79888L17.5106 16.2694L18.438 13.3135C18.546 12.9694 18.848 12.7223 19.2066 12.6846C19.5652 12.647 19.912 12.8258 20.0891 13.14L21.391 15.4495L34.1176 15.3509C34.6266 14.3605 35.0014 13.2755 35.1865 12.0773C35.7025 8.74018 34.8401 5.3828 32.88 3.09612C31.1435 1.07052 28.6748 -4.14098e-08 25.7409 -4.14098e-08C21.1884 -4.14098e-08 18.6017 3.05704 17.6666 4.43603C16.7315 3.05704 14.1447 -4.14098e-08 9.59217 -4.14098e-08C6.65834 -4.14098e-08 4.18965 1.07052 2.45316 3.09612C0.493225 5.38262 -0.369232 8.74018 0.146759 12.0773C0.319902 13.1968 0.657322 14.2183 1.11596 15.1557Z" fill="url(#paint0_linear)"/>
<path d="M20.8714 17.2616C20.5461 17.2563 20.238 17.0879 20.0764 16.8013L19.5384 15.8469L18.0787 20.4992C17.9596 20.8784 17.6085 21.133 17.216 21.133C17.1936 21.133 17.1712 21.1322 17.1486 21.1304C16.7295 21.0993 16.3871 20.7836 16.3219 20.3686L14.997 11.9238L14.0794 16.2471C13.9907 16.6651 13.6217 16.964 13.1945 16.964H2.21631C4.36675 19.8971 7.69464 21.8726 10.3571 23.4511C11.6621 24.2249 12.8947 24.9558 13.7519 25.6551C16.9172 28.2372 17.2068 29.5401 17.2175 29.5943C17.2453 29.8203 17.4364 29.9989 17.6654 29.9989C17.8992 29.9989 18.0937 29.8288 18.1149 29.596C18.117 29.5831 18.3627 28.2803 21.5808 25.6551C22.438 24.9558 23.6706 24.2249 24.9756 23.4511C27.5758 21.9093 30.8113 19.9893 32.9642 17.168L20.8714 17.2616Z" fill="url(#paint1_linear)"/>
<defs>
<linearGradient id="paint0_linear" x1="0" y1="1.19628" x2="11.295" y2="26.8523" gradientUnits="userSpaceOnUse">
<stop stop-color="#258BBC"/>
<stop offset="0.469613" stop-color="#26A7A2"/>
<stop offset="1" stop-color="#26BB91"/>
</linearGradient>
<linearGradient id="paint1_linear" x1="2.21631" y1="13.2529" x2="16.7503" y2="39.1119" gradientUnits="userSpaceOnUse">
<stop stop-color="#258BBC"/>
<stop offset="0.469613" stop-color="#26A7A2"/>
<stop offset="1" stop-color="#26BB91"/>
</linearGradient>
</defs>
</svg>
