<svg width="27" height="30" viewBox="0 0 27 30" fill="none" xmlns="http://www.w3.org/2000/svg">
<path d="M21.4108 11.5151C21.4108 12.9516 21.0351 14.3402 20.3777 15.5373L19.5325 14.1487C19.3917 13.9571 19.2508 13.7656 19.1099 13.5741C19.3447 12.9516 19.4856 12.2333 19.4856 11.5151C19.4856 8.21115 16.856 5.4818 13.569 5.4818C10.2821 5.4818 7.65252 8.16326 7.65252 11.5151C7.65252 12.2333 7.79339 12.9516 8.02817 13.5741C7.84035 13.7177 7.69948 13.9093 7.60556 14.1487L6.76035 15.5373C6.10295 14.3402 5.7273 12.9995 5.7273 11.5151C5.7273 7.06195 9.24904 3.4707 13.616 3.4707C17.983 3.4707 21.4108 7.10983 21.4108 11.5151Z" fill="url(#paint0_linear)"/>
<path d="M27 7.3508V22.1467C27 22.6256 26.6243 23.0565 26.1078 23.0565H24.9809L20.8487 16.3528C21.7409 14.9642 22.2574 13.2883 22.2574 11.5166C22.2574 6.58466 18.313 2.61035 13.5235 2.61035C8.73391 2.61035 4.78957 6.63255 4.78957 11.5166C4.78957 13.2883 5.30609 14.9642 6.19826 16.3528L2.06609 23.0565H0.892174C0.422609 23.0565 2.23906e-08 22.6734 2.23906e-08 22.1467V7.30291C2.23906e-08 5.77065 0.798261 4.33415 2.06609 3.52013C5.96348 1.0302 14.8852 -2.99199 24.9809 3.56802C26.2487 4.38203 27 5.81853 27 7.3508Z" fill="url(#paint1_linear)"/>
<path d="M24.1834 24.1092L18.4078 14.8678C18.0791 14.341 17.4687 14.0059 16.8582 14.0059H10.1904C9.57996 14.0059 8.96953 14.341 8.64083 14.8678L2.86518 24.1092C6.01127 25.1148 9.62692 25.7373 13.5243 25.8809C17.3747 25.7373 21.0374 25.1148 24.1834 24.1092Z" fill="url(#paint2_linear)"/>
<path d="M13.5248 26.9344C9.6274 26.7908 5.87088 26.1683 2.67783 25.1148V27.7963C2.67783 28.9455 3.57001 29.8553 4.65001 29.8553L13.5248 29.9989L22.3996 29.8553C23.5265 29.8553 24.3717 28.8976 24.3717 27.7963V25.1148C21.1787 26.1683 17.4222 26.7908 13.5248 26.9344Z" fill="url(#paint3_linear)"/>
<defs>
<linearGradient id="paint0_linear" x1="5.7273" y1="4.35795" x2="16.5703" y2="19.098" gradientUnits="userSpaceOnUse">
<stop stop-color="#258BBC"/>
<stop offset="0.469613" stop-color="#26A7A2"/>
<stop offset="1" stop-color="#26BB91"/>
</linearGradient>
<linearGradient id="paint1_linear" x1="0" y1="1.69533" x2="21.2643" y2="27.7395" gradientUnits="userSpaceOnUse">
<stop stop-color="#258BBC"/>
<stop offset="0.469613" stop-color="#26A7A2"/>
<stop offset="1" stop-color="#26BB91"/>
</linearGradient>
<linearGradient id="paint2_linear" x1="2.86518" y1="14.879" x2="12.1407" y2="32.2948" gradientUnits="userSpaceOnUse">
<stop stop-color="#258BBC"/>
<stop offset="0.469613" stop-color="#26A7A2"/>
<stop offset="1" stop-color="#26BB91"/>
</linearGradient>
<linearGradient id="paint3_linear" x1="2.67783" y1="25.474" x2="4.56941" y2="34.2615" gradientUnits="userSpaceOnUse">
<stop stop-color="#258BBC"/>
<stop offset="0.469613" stop-color="#26A7A2"/>
<stop offset="1" stop-color="#26BB91"/>
</linearGradient>
</defs>
</svg>
