<svg width="30" height="30" viewBox="0 0 30 30" fill="none" xmlns="http://www.w3.org/2000/svg">
<path d="M15.5057 22.7963C15.8669 22.6841 16.1699 22.5617 16.3571 22.4471C16.1363 22.3793 15.8213 22.3139 15.5057 22.2563V22.7963Z" fill="url(#paint0_linear)"/>
<path d="M12.7166 20.3062C12.8714 20.5108 13.6202 20.6908 14.2964 20.821V18.7594C13.8074 18.9976 13.3826 19.2886 13.082 19.6102C12.8474 19.8616 12.7184 20.1082 12.7166 20.3062Z" fill="url(#paint1_linear)"/>
<path d="M11.5003 11.6466C11.5417 11.9976 11.9809 12.3324 12.7069 12.5652C13.2817 12.75 13.8085 12.936 14.2975 13.1232V9.67383C13.6603 9.75543 13.0579 9.97263 12.5713 10.2666C11.8825 10.6824 11.4523 11.2368 11.5003 11.6466Z" fill="url(#paint2_linear)"/>
<path d="M15.5057 17.0812C15.9251 16.9906 16.3505 16.9348 16.7657 16.9216C17.2019 16.9078 17.2439 16.5028 17.2463 16.3786C17.2505 16.1818 16.8815 15.6598 15.5057 14.9602V17.0812Z" fill="url(#paint3_linear)"/>
<path d="M30 10.8702L26.0916 4.1298L18.9078 8.2596V0H11.0916V8.2596L3.9078 4.1298L0 10.8702L7.1838 15L0 19.1298L3.9084 25.8702L11.0922 21.7404V30H18.9084V21.7404L26.0922 25.8702L30 19.1298L22.8162 15L30 10.8702ZM18.4968 10.7964C18.0588 11.2668 17.6538 11.2662 17.0466 10.494C16.9014 10.3098 16.6374 10.1196 16.3218 9.9366C16.056 9.8208 15.7818 9.741 15.5052 9.693V13.626C17.4792 14.5314 18.4728 15.4614 18.4542 16.4028C18.438 17.2332 17.8656 18.0912 16.803 18.1242C16.377 18.1374 15.9354 18.2058 15.5052 18.3168V21.0318C16.7856 21.2556 17.7438 21.4974 17.7438 22.3344C17.7438 23.2404 16.6104 23.766 15.5052 24.0624V25.731H14.2974V24.3138C13.8258 24.3882 13.4832 24.4164 13.4358 24.42C13.2996 24.4992 13.1598 25.116 13.1958 25.6938L11.9898 25.7664C11.9208 24.6456 12.2346 23.3058 13.3422 23.2194C13.6476 23.196 13.974 23.1498 14.298 23.0898V22.0452C12.8694 21.789 11.5548 21.4428 11.5104 20.3772C11.4882 19.8438 11.7264 19.2948 12.1986 18.7896C12.7056 18.2472 13.4556 17.7804 14.298 17.448V14.4138C13.746 14.1894 13.0974 13.953 12.336 13.7082C10.782 13.209 10.371 12.3864 10.3002 11.784C10.1934 10.8744 10.8084 9.9216 11.9454 9.2352C12.6024 8.8386 13.4256 8.5518 14.298 8.4648V7.6872H15.5058V8.4804C16.0572 8.5512 16.6068 8.7132 17.1288 8.9904C17.5194 9.0798 17.8578 9.183 18.0672 9.3C18.9096 9.7722 18.9348 10.326 18.4968 10.7964Z" fill="url(#paint4_linear)"/>
<defs>
<linearGradient id="paint0_linear" x1="15.5057" y1="22.296" x2="15.9564" y2="23.0392" gradientUnits="userSpaceOnUse">
<stop stop-color="#258BBC"/>
<stop offset="0.469613" stop-color="#26A7A2"/>
<stop offset="1" stop-color="#26BB91"/>
</linearGradient>
<linearGradient id="paint1_linear" x1="12.7166" y1="18.911" x2="14.6106" y2="20.4289" gradientUnits="userSpaceOnUse">
<stop stop-color="#258BBC"/>
<stop offset="0.469613" stop-color="#26A7A2"/>
<stop offset="1" stop-color="#26BB91"/>
</linearGradient>
<linearGradient id="paint2_linear" x1="11.4967" y1="9.92746" x2="14.7007" y2="12.6485" gradientUnits="userSpaceOnUse">
<stop stop-color="#258BBC"/>
<stop offset="0.469613" stop-color="#26A7A2"/>
<stop offset="1" stop-color="#26BB91"/>
</linearGradient>
<linearGradient id="paint3_linear" x1="15.5057" y1="15.1161" x2="17.4791" y2="16.81" gradientUnits="userSpaceOnUse">
<stop stop-color="#258BBC"/>
<stop offset="0.469613" stop-color="#26A7A2"/>
<stop offset="1" stop-color="#26BB91"/>
</linearGradient>
<linearGradient id="paint4_linear" x1="0" y1="2.20588" x2="28.2104" y2="31.7111" gradientUnits="userSpaceOnUse">
<stop stop-color="#258BBC"/>
<stop offset="0.469613" stop-color="#26A7A2"/>
<stop offset="1" stop-color="#26BB91"/>
</linearGradient>
</defs>
</svg>
