<svg width="36" height="30" viewBox="0 0 36 30" fill="none" xmlns="http://www.w3.org/2000/svg">
<path d="M18.0105 22.8808L3.80272 22.8816L4.70968 19.4911H17.8003L18.0105 22.8808Z" fill="url(#paint0_linear)"/>
<path d="M7.42445e-09 28.4314C0.0155702 29.2916 0.696766 30.0001 1.56091 30.0001H26.6445C27.5086 30.0001 28.3027 29.2916 28.3144 28.4314L28.3362 27.2753H0.0046711L7.42445e-09 28.4314Z" fill="url(#paint1_linear)"/>
<path d="M25.3087 4.1082C25.3087 3.78979 25.2176 3.67651 25.0207 3.48383C24.865 3.33981 21.1904 -6.682e-08 14.0631 -6.682e-08C7.2901 -6.682e-08 3.14259 3.20863 2.96431 3.35343C2.76852 3.51225 2.73193 3.79835 2.73193 4.15101V17.1545H25.3087V4.1082ZM14.0456 1.97352C17.7681 1.97352 19.5836 2.93148 20.2227 3.32618C20.3177 3.38496 20.2737 3.53054 20.162 3.53054H7.81209C7.69882 3.53054 7.656 3.38146 7.75409 3.32463C8.43412 2.92914 10.2893 1.97352 14.0456 1.97352ZM23.3624 15.9867C23.3624 16.2008 23.1873 16.376 22.9732 16.376H5.06746C4.85337 16.376 4.6782 16.2008 4.6782 15.9867V5.47682C4.6782 5.26273 4.85337 5.08756 5.06746 5.08756H22.9732C23.1873 5.08756 23.3624 5.26273 23.3624 5.47682V15.9867Z" fill="url(#paint2_linear)"/>
<path d="M30.8507 12.4833L31.537 14.3662V21.0376C31.537 22.8846 29.9313 24.5502 28.0843 24.5502H27.6215L25.2836 17.9329H2.5476L0.00732422 26.4965H28.3237C28.3136 26.4475 28.2976 26.3973 28.2711 26.3252L27.9033 25.3288H28.0843C30.3606 25.3288 32.3155 23.3136 32.3155 21.0376V14.3576L32.8153 12.4833H30.8507ZM23.9582 21.2533C23.9582 21.5257 23.6156 21.7437 23.1952 21.7437C22.7748 21.7437 22.4323 21.5257 22.4323 21.2533C22.4323 20.9847 22.7748 20.7628 23.1952 20.7628C23.6156 20.7628 23.9582 20.9847 23.9582 21.2533ZM22.7593 19.0189C23.1797 19.0189 23.5222 19.2369 23.5222 19.5094C23.5222 19.778 23.1797 19.9999 22.7593 19.9999C22.335 19.9999 21.9963 19.778 21.9963 19.5094C21.9963 19.2369 22.335 19.0189 22.7593 19.0189ZM3.10969 25.2392C2.68929 25.2392 2.34675 25.0173 2.34675 24.7488C2.34675 24.4763 2.68929 24.2583 3.10969 24.2583C3.53397 24.2583 3.87263 24.4763 3.87263 24.7488C3.87263 25.0173 3.53397 25.2392 3.10969 25.2392ZM5.29341 25.2392C4.87301 25.2392 4.53047 25.0173 4.53047 24.7488C4.53047 24.4763 4.87301 24.2583 5.29341 24.2583C5.7138 24.2583 6.05635 24.4763 6.05635 24.7488C6.05635 25.0173 5.7138 25.2392 5.29341 25.2392ZM11.8446 25.2392C11.4203 25.2392 11.0777 25.0173 11.0777 24.7488C11.0777 24.4763 11.4203 24.2583 11.8446 24.2583C12.265 24.2583 12.6075 24.4763 12.6075 24.7488C12.6075 25.0173 12.265 25.2392 11.8446 25.2392ZM14.0244 25.2392C13.604 25.2392 13.2615 25.0173 13.2615 24.7488C13.2615 24.4763 13.604 24.2583 14.0244 24.2583C14.4487 24.2583 14.7912 24.4763 14.7912 24.7488C14.7912 25.0173 14.4487 25.2392 14.0244 25.2392ZM16.2081 25.2392C15.7877 25.2392 15.4452 25.0173 15.4452 24.7488C15.4452 24.4763 15.7877 24.2583 16.2081 24.2583C16.6324 24.2583 16.9749 24.4763 16.9749 24.7488C16.9749 25.0173 16.6324 25.2392 16.2081 25.2392ZM18.2941 23.7717C18.2941 23.7717 3.52346 23.7725 3.36543 23.7717C3.04974 23.7702 2.80179 23.4895 2.8629 23.2591C2.8629 23.2591 3.94347 19.2891 3.94814 19.2708C4.04896 18.8932 4.13498 18.7114 4.54059 18.7114H18.1661C18.3724 18.7114 18.5495 18.8504 18.5612 19.061L18.8698 23.2326C18.8702 23.4759 18.6659 23.7717 18.2941 23.7717ZM19.8126 19.5094C19.8126 19.2369 20.1552 19.0189 20.5756 19.0189C20.996 19.0189 21.3385 19.2369 21.3385 19.5094C21.3385 19.778 20.996 19.9999 20.5756 19.9999C20.1552 19.9999 19.8126 19.778 19.8126 19.5094ZM20.2486 21.2533C20.2486 20.9847 20.5911 20.7628 21.0115 20.7628C21.4358 20.7628 21.7745 20.9847 21.7745 21.2533C21.7745 21.5257 21.4358 21.7437 21.0115 21.7437C20.5911 21.7437 20.2486 21.5257 20.2486 21.2533ZM20.6845 23.001C20.6845 22.7285 21.0271 22.5105 21.4475 22.5105C21.8718 22.5105 22.2143 22.7285 22.2143 23.001C22.2143 23.2735 21.8718 23.4915 21.4475 23.4915C21.0271 23.4915 20.6845 23.2735 20.6845 23.001ZM21.8873 25.2392C21.4631 25.2392 21.1205 25.0173 21.1205 24.7488C21.1205 24.4763 21.4631 24.2583 21.8873 24.2583C22.3077 24.2583 22.6503 24.4763 22.6503 24.7488C22.6503 25.0173 22.3077 25.2392 21.8873 25.2392ZM22.8683 23.001C22.8683 22.7285 23.2108 22.5105 23.6312 22.5105C24.0555 22.5105 24.398 22.7285 24.398 23.001C24.398 23.2735 24.0555 23.4915 23.6312 23.4915C23.2108 23.4915 22.8683 23.2735 22.8683 23.001ZM24.0672 25.2392C23.6468 25.2392 23.3042 25.0173 23.3042 24.7488C23.3042 24.4763 23.6468 24.2583 24.0672 24.2583C24.4915 24.2583 24.834 24.4763 24.834 24.7488C24.834 25.0173 24.4915 25.2392 24.0672 25.2392Z" fill="url(#paint3_linear)"/>
<path d="M33.484 7.12348C33.484 6.23209 34.6712 6.00243 34.718 5.99464C34.9048 5.95961 35.041 5.80001 35.041 5.60928V4.23521C35.041 4.0834 34.9554 3.94716 34.8192 3.88099C31.1524 2.15269 28.6923 3.84206 28.5872 3.91602C28.486 3.98998 28.4237 4.10675 28.4237 4.23521V5.60928C28.4237 5.80001 28.5599 5.95961 28.7468 5.99464C28.7585 5.99464 29.9807 6.2243 29.9807 7.12348V10.0507C30.0033 10.2632 30.1224 11.067 30.4042 11.705H33.2088C33.4443 11.0592 33.4727 10.2414 33.484 10.0156V7.12348ZM31.7405 7.68907C31.291 7.68907 30.9527 7.19549 30.9527 6.5396C30.9527 5.8802 31.291 5.38662 31.7405 5.38662C32.1936 5.38662 32.5315 5.8802 32.5315 6.5396C32.5315 7.1951 32.1936 7.68907 31.7405 7.68907Z" fill="url(#paint4_linear)"/>
<path d="M5.45652 5.86523V15.5966H22.5837V5.86523H5.45652ZM18.1883 12.8563C17.5717 13.1879 16.1003 13.8317 13.9719 13.8317C12.0295 13.8317 10.4402 13.1712 9.77141 12.8438C9.57523 12.7477 9.48609 12.5168 9.56355 12.3125L11.2245 7.92284C11.3062 7.7068 11.5425 7.59586 11.7609 7.67138C12.2109 7.82747 13.017 8.04896 13.9719 8.04896C14.7924 8.04896 15.6912 7.80723 16.1859 7.65075C16.402 7.58263 16.632 7.69395 16.7122 7.90571L18.3864 12.33C18.4631 12.5304 18.3778 12.7543 18.1883 12.8563Z" fill="url(#paint5_linear)"/>
<defs>
<linearGradient id="paint0_linear" x1="3.80272" y1="19.7404" x2="5.18694" y2="25.8074" gradientUnits="userSpaceOnUse">
<stop stop-color="#258BBC"/>
<stop offset="0.469613" stop-color="#26A7A2"/>
<stop offset="1" stop-color="#26BB91"/>
</linearGradient>
<linearGradient id="paint1_linear" x1="0" y1="27.4756" x2="0.467662" y2="32.5623" gradientUnits="userSpaceOnUse">
<stop stop-color="#258BBC"/>
<stop offset="0.469613" stop-color="#26A7A2"/>
<stop offset="1" stop-color="#26BB91"/>
</linearGradient>
<linearGradient id="paint2_linear" x1="2.73193" y1="1.26136" x2="18.0886" y2="22.3998" gradientUnits="userSpaceOnUse">
<stop stop-color="#258BBC"/>
<stop offset="0.469613" stop-color="#26A7A2"/>
<stop offset="1" stop-color="#26BB91"/>
</linearGradient>
<linearGradient id="paint3_linear" x1="0.00732422" y1="13.5137" x2="9.24094" y2="36.1239" gradientUnits="userSpaceOnUse">
<stop stop-color="#258BBC"/>
<stop offset="0.469613" stop-color="#26A7A2"/>
<stop offset="1" stop-color="#26BB91"/>
</linearGradient>
<linearGradient id="paint4_linear" x1="28.4237" y1="3.73779" x2="36.3312" y2="10.1019" gradientUnits="userSpaceOnUse">
<stop stop-color="#258BBC"/>
<stop offset="0.469613" stop-color="#26A7A2"/>
<stop offset="1" stop-color="#26BB91"/>
</linearGradient>
<linearGradient id="paint5_linear" x1="5.45652" y1="6.58078" x2="13.1411" y2="20.7263" gradientUnits="userSpaceOnUse">
<stop stop-color="#258BBC"/>
<stop offset="0.469613" stop-color="#26A7A2"/>
<stop offset="1" stop-color="#26BB91"/>
</linearGradient>
</defs>
</svg>
