<svg width="100%" height="100%" viewBox="0 0 444 542" fill="none" xmlns="http://www.w3.org/2000/svg">
<path d="M255.163 411.157C241.273 376.242 242.889 335.554 263.134 300.489C286.539 259.949 328.898 237.202 372.555 236.916L417.939 153.241L373.939 73.03C273.227 72.8945 175.223 125.096 121.253 218.574C70.6384 306.241 70.84 409.293 112.694 493.654L161.239 413.659L255.163 411.157Z" fill="#258DBB"/>
<path opacity="0.7" d="M190.877 246.344C190.877 246.986 190.649 247.517 190.193 247.937C189.738 248.356 189.12 248.622 188.341 248.736V248.777C189.257 248.868 189.959 249.121 190.446 249.536C190.938 249.951 191.185 250.491 191.185 251.156C191.185 252.077 190.811 252.804 190.063 253.337C189.321 253.87 188.291 254.137 186.974 254.137C185.506 254.137 184.328 253.957 183.439 253.597V251.819C183.868 252.024 184.369 252.186 184.943 252.305C185.522 252.419 186.062 252.476 186.563 252.476C188.245 252.476 189.086 251.986 189.086 251.006C189.086 250.564 188.815 250.224 188.272 249.987C187.735 249.75 186.937 249.632 185.88 249.632H184.943V247.978H185.784C186.841 247.978 187.612 247.877 188.095 247.677C188.578 247.476 188.819 247.144 188.819 246.679C188.819 246.337 188.667 246.066 188.361 245.865C188.061 245.66 187.607 245.558 187.001 245.558C186.062 245.558 185.155 245.829 184.28 246.371L183.357 244.956C183.927 244.578 184.531 244.302 185.169 244.129C185.807 243.951 186.516 243.862 187.295 243.862C188.384 243.862 189.252 244.09 189.899 244.546C190.551 245.002 190.877 245.601 190.877 246.344ZM199.169 254L198.444 251.621H194.801L194.076 254H191.793L195.32 243.965H197.911L201.452 254H199.169ZM197.938 249.844C197.269 247.688 196.89 246.469 196.804 246.187C196.722 245.904 196.662 245.681 196.626 245.517C196.476 246.1 196.045 247.542 195.334 249.844H197.938ZM210.626 254H208.514V245.77H204.836V254H202.717V244.006H210.626V254ZM213.148 244.006H215.056V248.832L215.028 250.124L214.96 251.594H215.001L219.615 244.006H222.151V254H220.265V249.201C220.265 248.559 220.306 247.606 220.388 246.344H220.333L215.698 254H213.148V244.006ZM228.919 245.626C228.121 245.626 227.504 245.927 227.066 246.528C226.629 247.125 226.41 247.959 226.41 249.03C226.41 251.259 227.246 252.373 228.919 252.373C229.621 252.373 230.471 252.198 231.469 251.847V253.624C230.648 253.966 229.732 254.137 228.721 254.137C227.267 254.137 226.155 253.697 225.385 252.817C224.615 251.933 224.229 250.666 224.229 249.017C224.229 247.978 224.419 247.068 224.797 246.289C225.175 245.505 225.717 244.906 226.424 244.491C227.135 244.072 227.966 243.862 228.919 243.862C229.89 243.862 230.865 244.097 231.845 244.566L231.161 246.289C230.787 246.111 230.411 245.956 230.033 245.824C229.655 245.692 229.284 245.626 228.919 245.626ZM240.643 250.876C240.643 252.959 239.266 254 236.514 254H233.602V244.006H235.721V247.841H236.555C237.858 247.841 238.865 248.105 239.576 248.634C240.287 249.162 240.643 249.91 240.643 250.876ZM235.721 252.264H236.432C237.147 252.264 237.671 252.15 238.004 251.922C238.337 251.689 238.503 251.341 238.503 250.876C238.503 250.416 238.334 250.085 237.997 249.885C237.66 249.68 237.081 249.577 236.261 249.577H235.721V252.264ZM183.535 273H181.423V268.687H177.465V273H175.346V263.006H177.465V266.923H181.423V263.006H183.535V273ZM192.183 273L191.458 270.621H187.814L187.09 273H184.807L188.334 262.965H190.925L194.466 273H192.183ZM190.952 268.844C190.282 266.688 189.904 265.469 189.817 265.187C189.735 264.904 189.676 264.681 189.64 264.517C189.489 265.1 189.059 266.542 188.348 268.844H190.952ZM207.276 273H205.164V264.77H201.486V273H199.367V263.006H207.276V273ZM211.918 267.709H212.615C213.267 267.709 213.755 267.581 214.078 267.326C214.402 267.066 214.563 266.69 214.563 266.198C214.563 265.701 214.427 265.335 214.153 265.098C213.884 264.861 213.461 264.742 212.882 264.742H211.918V267.709ZM216.703 266.123C216.703 267.199 216.366 268.021 215.691 268.591C215.021 269.16 214.067 269.445 212.827 269.445H211.918V273H209.799V263.006H212.991C214.203 263.006 215.124 263.268 215.753 263.792C216.386 264.312 216.703 265.089 216.703 266.123ZM218.59 263.006H220.497V267.832L220.47 269.124L220.401 270.594H220.442L225.057 263.006H227.593V273H225.706V268.201C225.706 267.559 225.747 266.606 225.829 265.344H225.774L221.14 273H218.59V263.006ZM235.871 273H230.115V263.006H235.871V264.742H232.234V266.937H235.618V268.673H232.234V271.25H235.871V273ZM242.194 273L239.788 265.159H239.727C239.813 266.754 239.856 267.818 239.856 268.352V273H237.963V263.006H240.848L243.213 270.648H243.254L245.763 263.006H248.647V273H246.672V268.27C246.672 268.046 246.674 267.789 246.679 267.497C246.688 267.205 246.72 266.431 246.774 265.173H246.713L244.136 273H242.194Z" fill="white"/>
<g opacity="0.77">
<path d="M229.552 195.433C227.345 193.219 224.409 192 221.288 192C218.166 192 215.231 193.219 213.024 195.433L212.096 196.363L211.168 195.433C208.961 193.219 206.026 192 202.904 192C199.782 192 196.848 193.219 194.641 195.433C190.084 200.002 190.084 207.437 194.641 212.006L211.225 228.638C211.466 228.879 211.781 229 212.096 229C212.411 229 212.726 228.879 212.967 228.639L229.552 212.007C231.759 209.794 232.975 206.85 232.975 203.72C232.975 200.589 231.759 197.646 229.552 195.433ZM227.81 210.261L212.096 226.02L196.382 210.261C192.785 206.654 192.785 200.785 196.382 197.179C198.124 195.432 200.44 194.469 202.904 194.469C205.368 194.469 207.685 195.432 209.427 197.179L211.225 198.982C211.706 199.464 212.485 199.464 212.966 198.982L214.765 197.179C216.507 195.432 218.824 194.469 221.288 194.469C223.752 194.469 226.068 195.432 227.81 197.179C231.407 200.785 231.407 206.654 227.81 210.261Z" fill="white"/>
<path d="M192.746 207.6H188.231C187.551 207.6 187 208.153 187 208.835C187 209.516 187.551 210.069 188.231 210.069H192.746C193.426 210.069 193.977 209.516 193.977 208.835C193.977 208.153 193.426 207.6 192.746 207.6Z" fill="white"/>
<path d="M231.322 207.639H219.539L217.705 203.595C217.567 203.289 217.266 203.103 216.923 203.113C216.588 203.127 216.296 203.343 216.185 203.66L212.437 214.251L207.881 201.598C207.768 201.285 207.479 201.071 207.147 201.055C206.793 201.039 206.507 201.226 206.366 201.527L203.305 208.051H193.156C192.702 208.051 192.335 208.419 192.335 208.874C192.335 209.328 192.875 209.657 193.328 209.657H203.999C204.317 209.657 204.433 209.513 204.569 209.224L207.009 204.024L211.673 216.973C211.79 217.299 212.099 217.516 212.445 217.516C212.445 217.516 212.446 217.516 212.446 217.516C212.793 217.516 213.102 217.296 213.217 216.969L217.052 206.131L218.263 208.803C218.396 209.097 218.862 209.245 219.183 209.245H231.495C231.948 209.245 232.143 208.917 232.143 208.462C232.143 208.008 231.775 207.639 231.322 207.639Z" fill="white"/>
<path d="M235.427 207.187H231.733C231.053 207.187 230.502 207.74 230.502 208.422C230.502 209.104 231.053 209.657 231.733 209.657H235.427C236.107 209.657 236.658 209.104 236.658 208.422C236.658 207.74 236.107 207.187 235.427 207.187Z" fill="white"/>
</g>
</svg>
