<svg width="100%" height="100%" viewBox="0 0 408 499" fill="none" xmlns="http://www.w3.org/2000/svg">
<g filter="url(#filter0_d)">
<path d="M211.036 373.227C204.48 357.294 200.843 339.855 200.843 321.569C200.843 247.153 260.688 186.718 334.981 185.449L383 97.1278L335.09 10C163.625 11.2172 25 150.235 25 321.569C25 370.901 36.5086 417.544 56.9667 459L107.469 375.983L211.041 373.231L211.036 373.227Z" fill="url(#paint0_linear)"/>
</g>
<path d="M149.877 198.344C149.877 198.986 149.649 199.517 149.193 199.937C148.738 200.356 148.12 200.622 147.341 200.736V200.777C148.257 200.868 148.959 201.121 149.446 201.536C149.938 201.951 150.185 202.491 150.185 203.156C150.185 204.077 149.811 204.804 149.063 205.337C148.321 205.87 147.291 206.137 145.974 206.137C144.506 206.137 143.328 205.957 142.439 205.597V203.819C142.868 204.024 143.369 204.186 143.943 204.305C144.522 204.419 145.062 204.476 145.563 204.476C147.245 204.476 148.086 203.986 148.086 203.006C148.086 202.564 147.815 202.224 147.272 201.987C146.735 201.75 145.937 201.632 144.88 201.632H143.943V199.978H144.784C145.841 199.978 146.612 199.877 147.095 199.677C147.578 199.476 147.819 199.144 147.819 198.679C147.819 198.337 147.667 198.066 147.361 197.865C147.061 197.66 146.607 197.558 146.001 197.558C145.062 197.558 144.155 197.829 143.28 198.371L142.357 196.956C142.927 196.578 143.531 196.302 144.169 196.129C144.807 195.951 145.516 195.862 146.295 195.862C147.384 195.862 148.252 196.09 148.899 196.546C149.551 197.002 149.877 197.601 149.877 198.344ZM158.169 206L157.444 203.621H153.801L153.076 206H150.793L154.32 195.965H156.911L160.452 206H158.169ZM156.938 201.844C156.269 199.688 155.89 198.469 155.804 198.187C155.722 197.904 155.662 197.681 155.626 197.517C155.476 198.1 155.045 199.542 154.334 201.844H156.938ZM169.626 206H167.514V197.77H163.836V206H161.717V196.006H169.626V206ZM172.148 196.006H174.056V200.832L174.028 202.124L173.96 203.594H174.001L178.615 196.006H181.151V206H179.265V201.201C179.265 200.559 179.306 199.606 179.388 198.344H179.333L174.698 206H172.148V196.006ZM187.919 197.626C187.121 197.626 186.504 197.927 186.066 198.528C185.629 199.125 185.41 199.959 185.41 201.03C185.41 203.259 186.246 204.373 187.919 204.373C188.621 204.373 189.471 204.198 190.469 203.847V205.624C189.648 205.966 188.732 206.137 187.721 206.137C186.267 206.137 185.155 205.697 184.385 204.817C183.615 203.933 183.229 202.666 183.229 201.017C183.229 199.978 183.419 199.068 183.797 198.289C184.175 197.505 184.717 196.906 185.424 196.491C186.135 196.072 186.966 195.862 187.919 195.862C188.89 195.862 189.865 196.097 190.845 196.566L190.161 198.289C189.787 198.111 189.411 197.956 189.033 197.824C188.655 197.692 188.284 197.626 187.919 197.626ZM199.643 202.876C199.643 204.959 198.266 206 195.514 206H192.602V196.006H194.721V199.841H195.555C196.858 199.841 197.865 200.105 198.576 200.634C199.287 201.162 199.643 201.91 199.643 202.876ZM194.721 204.264H195.432C196.147 204.264 196.671 204.15 197.004 203.922C197.337 203.689 197.503 203.341 197.503 202.876C197.503 202.416 197.334 202.085 196.997 201.885C196.66 201.68 196.081 201.577 195.261 201.577H194.721V204.264ZM142.535 225H140.423V220.687H136.465V225H134.346V215.006H136.465V218.923H140.423V215.006H142.535V225ZM151.183 225L150.458 222.621H146.814L146.09 225H143.807L147.334 214.965H149.925L153.466 225H151.183ZM149.952 220.844C149.282 218.688 148.904 217.469 148.817 217.187C148.735 216.904 148.676 216.681 148.64 216.517C148.489 217.1 148.059 218.542 147.348 220.844H149.952ZM166.276 225H164.164V216.77H160.486V225H158.367V215.006H166.276V225ZM170.918 219.709H171.615C172.267 219.709 172.755 219.581 173.078 219.326C173.402 219.066 173.563 218.69 173.563 218.198C173.563 217.701 173.427 217.335 173.153 217.098C172.884 216.861 172.461 216.742 171.882 216.742H170.918V219.709ZM175.703 218.123C175.703 219.199 175.366 220.021 174.691 220.591C174.021 221.16 173.067 221.445 171.827 221.445H170.918V225H168.799V215.006H171.991C173.203 215.006 174.124 215.268 174.753 215.792C175.386 216.312 175.703 217.089 175.703 218.123ZM177.59 215.006H179.497V219.832L179.47 221.124L179.401 222.594H179.442L184.057 215.006H186.593V225H184.706V220.201C184.706 219.559 184.747 218.606 184.829 217.344H184.774L180.14 225H177.59V215.006ZM194.871 225H189.115V215.006H194.871V216.742H191.234V218.937H194.618V220.673H191.234V223.25H194.871V225ZM201.194 225L198.788 217.159H198.727C198.813 218.754 198.856 219.818 198.856 220.352V225H196.963V215.006H199.848L202.213 222.648H202.254L204.763 215.006H207.647V225H205.672V220.27C205.672 220.046 205.674 219.789 205.679 219.497C205.688 219.205 205.72 218.431 205.774 217.173H205.713L203.136 225H201.194Z" fill="white"/>
<path d="M188.552 147.433C186.345 145.219 183.409 144 180.288 144C177.166 144 174.231 145.219 172.024 147.433L171.096 148.363L170.168 147.433C167.961 145.219 165.026 144 161.904 144C158.782 144 155.848 145.219 153.641 147.433C149.084 152.002 149.084 159.437 153.641 164.006L170.225 180.638C170.466 180.879 170.781 181 171.096 181C171.411 181 171.726 180.879 171.967 180.639L188.552 164.007C190.759 161.794 191.975 158.85 191.975 155.72C191.975 152.589 190.759 149.646 188.552 147.433ZM186.81 162.261L171.096 178.02L155.382 162.261C151.785 158.654 151.785 152.785 155.382 149.179C157.124 147.432 159.44 146.469 161.904 146.469C164.368 146.469 166.685 147.432 168.427 149.179L170.225 150.982C170.706 151.464 171.485 151.464 171.966 150.982L173.765 149.179C175.507 147.432 177.824 146.469 180.288 146.469C182.752 146.469 185.068 147.432 186.81 149.179C190.407 152.785 190.407 158.654 186.81 162.261Z" fill="white"/>
<path d="M151.746 159.6H147.231C146.551 159.6 146 160.153 146 160.835C146 161.516 146.551 162.069 147.231 162.069H151.746C152.426 162.069 152.977 161.516 152.977 160.835C152.977 160.153 152.426 159.6 151.746 159.6Z" fill="white"/>
<path d="M190.322 159.639H178.539L176.705 155.595C176.567 155.289 176.266 155.103 175.923 155.113C175.588 155.127 175.296 155.343 175.185 155.66L171.437 166.251L166.881 153.598C166.768 153.285 166.479 153.071 166.147 153.055C165.793 153.039 165.507 153.226 165.366 153.527L162.305 160.051H152.156C151.702 160.051 151.335 160.419 151.335 160.874C151.335 161.328 151.875 161.657 152.328 161.657H162.999C163.317 161.657 163.433 161.513 163.569 161.224L166.009 156.024L170.673 168.973C170.79 169.299 171.099 169.516 171.445 169.516C171.445 169.516 171.446 169.516 171.446 169.516C171.793 169.516 172.102 169.296 172.217 168.969L176.052 158.131L177.263 160.803C177.396 161.097 177.862 161.245 178.183 161.245H190.495C190.948 161.245 191.143 160.917 191.143 160.462C191.143 160.008 190.775 159.639 190.322 159.639Z" fill="white"/>
<path d="M194.427 159.187H190.733C190.053 159.187 189.502 159.74 189.502 160.422C189.502 161.104 190.053 161.657 190.733 161.657H194.427C195.107 161.657 195.658 161.104 195.658 160.422C195.658 159.74 195.107 159.187 194.427 159.187Z" fill="white"/>
<defs>
<filter id="filter0_d" x="0" y="0" width="408" height="499" filterUnits="userSpaceOnUse" color-interpolation-filters="sRGB">
<feFlood flood-opacity="0" result="BackgroundImageFix"/>
<feColorMatrix in="SourceAlpha" type="matrix" values="0 0 0 0 0 0 0 0 0 0 0 0 0 0 0 0 0 0 127 0"/>
<feOffset dy="15"/>
<feGaussianBlur stdDeviation="12.5"/>
<feColorMatrix type="matrix" values="0 0 0 0 0 0 0 0 0 0 0 0 0 0 0 0 0 0 0.15 0"/>
<feBlend mode="normal" in2="BackgroundImageFix" result="effect1_dropShadow"/>
<feBlend mode="normal" in="SourceGraphic" in2="effect1_dropShadow" result="shape"/>
</filter>
<linearGradient id="paint0_linear" x1="25.0136" y1="231.729" x2="383.006" y2="235.253" gradientUnits="userSpaceOnUse">
<stop stop-color="#70A335"/>
<stop offset="1" stop-color="#92C755"/>
</linearGradient>
</defs>
</svg>
