<svg width="18" height="17" viewBox="0 0 18 17" fill="none" xmlns="http://www.w3.org/2000/svg">
<path d="M17.5534 4.7158C17.2291 2.69659 15.8453 0.867867 13.9822 0.261757C12.793 -0.129617 11.5029 -0.0222489 10.2741 0.195951C8.64886 0.466103 6.84344 1.11031 6.17316 2.6862C5.82361 3.5209 5.85244 4.46296 5.79478 5.36347C5.79478 7.99572 4.07224 7.90913 4.07224 8.67456C4.05783 9.45385 5.59658 9.56121 5.45964 10.344C5.39117 10.6938 4.96955 10.9882 5.12451 11.2999C5.19297 11.4488 5.37676 11.5008 5.47406 11.622C5.76956 11.9718 5.29388 12.4844 5.3191 12.9554C5.33352 13.5477 6.09028 13.7763 6.64884 13.6966C7.20741 13.617 7.83804 13.4126 8.29931 13.7624C8.59481 13.9772 8.73174 14.3685 8.81823 14.7322C8.99841 15.4595 9.04166 16.225 8.97319 16.98H14.7822C14.5588 15.7574 14.5444 13.3918 15.103 11.5977C15.312 11.1544 15.6615 10.8046 15.9714 10.4271C17.2039 8.83388 17.8742 6.72116 17.5534 4.7158Z" fill="url(#paint0_linear)"/>
<path d="M0.753338 13.4096L0.234415 13.5827C0.0542332 13.6485 -0.0466686 13.839 0.0254041 14.0261C0.0830623 14.175 0.241622 14.2962 0.472255 14.2408L1.00559 14.0676C1.18577 14.0018 1.28668 13.8113 1.2146 13.6243C1.14613 13.4338 0.951538 13.3403 0.753338 13.4096Z" fill="url(#paint1_linear)"/>
<path d="M3.55301 12.4394L3.01967 12.6125C2.9512 12.6403 2.89354 12.6784 2.8503 12.7338C2.78183 12.7199 2.70976 12.7199 2.64129 12.7338L1.50614 13.1251C1.32596 13.1909 1.22506 13.3814 1.29713 13.5685C1.35479 13.7174 1.50614 13.8386 1.74398 13.7832L2.87913 13.3918C2.9476 13.3641 3.00526 13.326 3.0485 13.2706C3.07733 13.2845 3.153 13.3087 3.25751 13.2706L3.79085 13.0974C3.97103 13.0316 4.07193 12.8411 3.99986 12.6541C3.9458 12.4809 3.75121 12.384 3.55301 12.4394Z" fill="url(#paint2_linear)"/>
<path d="M0.752909 9.69971L0.237589 9.52654C0.057407 9.46073 -0.0434948 9.27024 0.0285779 9.08321C0.0862361 8.93428 0.244796 8.81306 0.475429 8.86848L1.00877 9.04165C1.18895 9.10746 1.28985 9.29795 1.21778 9.48498C1.1457 9.67201 0.951109 9.76552 0.752909 9.69971Z" fill="url(#paint3_linear)"/>
<path d="M3.55325 10.6441L3.01991 10.4709C2.95145 10.4432 2.89379 10.4051 2.85054 10.3497C2.78207 10.3635 2.71 10.3635 2.64153 10.3497L1.50639 9.9583C1.32621 9.8925 1.2253 9.702 1.29738 9.51498C1.35503 9.36605 1.50639 9.24482 1.74423 9.30024L2.87937 9.69161C2.94784 9.71932 3.0055 9.75742 3.04874 9.81284C3.07757 9.79898 3.15325 9.77474 3.25775 9.81284L3.79109 9.98601C3.97127 10.0518 4.07218 10.2423 4.0001 10.4293C3.94605 10.6025 3.75145 10.696 3.55325 10.6441Z" fill="url(#paint4_linear)"/>
<path d="M3.67923 11.2133H3.12067C2.92607 11.2133 2.77112 11.3622 2.77112 11.5631C2.77112 11.7501 2.92607 11.9129 3.12067 11.9129H3.67923C3.87383 11.9129 4.02879 11.764 4.02879 11.5631C4.02879 11.3622 3.87743 11.2133 3.67923 11.2133Z" fill="url(#paint5_linear)"/>
<path d="M2.72795 11.5529C2.72795 11.3658 2.573 11.2031 2.3784 11.2031H1.27208C1.20361 11.2031 1.14596 11.2169 1.0919 11.2585C1.03424 11.2308 0.980189 11.2031 0.91172 11.2031H0.349553C0.154956 11.2031 0 11.352 0 11.5529C0 11.7399 0.154956 11.9027 0.349553 11.9027H0.908116C0.976585 11.9027 1.03424 11.8888 1.0883 11.8473C1.14596 11.875 1.20001 11.9027 1.26848 11.9027H2.3748C2.573 11.9027 2.72795 11.7399 2.72795 11.5529Z" fill="url(#paint6_linear)"/>
<defs>
<linearGradient id="paint0_linear" x1="4.07214" y1="1.24853" x2="19.7999" y2="14.3861" gradientUnits="userSpaceOnUse">
<stop stop-color="#258BBC"/>
<stop offset="0.469613" stop-color="#26A7A2"/>
<stop offset="1" stop-color="#26BB91"/>
</linearGradient>
<linearGradient id="paint1_linear" x1="0.00195312" y1="13.4506" x2="0.757824" y2="14.5768" gradientUnits="userSpaceOnUse">
<stop stop-color="#258BBC"/>
<stop offset="0.469613" stop-color="#26A7A2"/>
<stop offset="1" stop-color="#26BB91"/>
</linearGradient>
<linearGradient id="paint2_linear" x1="1.27368" y1="12.5247" x2="2.2788" y2="14.6298" gradientUnits="userSpaceOnUse">
<stop stop-color="#258BBC"/>
<stop offset="0.469613" stop-color="#26A7A2"/>
<stop offset="1" stop-color="#26BB91"/>
</linearGradient>
<linearGradient id="paint3_linear" x1="0.00512695" y1="8.91847" x2="0.758859" y2="10.0438" gradientUnits="userSpaceOnUse">
<stop stop-color="#258BBC"/>
<stop offset="0.469613" stop-color="#26A7A2"/>
<stop offset="1" stop-color="#26BB91"/>
</linearGradient>
<linearGradient id="paint4_linear" x1="1.27393" y1="9.38743" x2="2.27751" y2="11.4913" gradientUnits="userSpaceOnUse">
<stop stop-color="#258BBC"/>
<stop offset="0.469613" stop-color="#26A7A2"/>
<stop offset="1" stop-color="#26BB91"/>
</linearGradient>
<linearGradient id="paint5_linear" x1="2.77112" y1="11.2647" x2="3.31718" y2="12.2914" gradientUnits="userSpaceOnUse">
<stop stop-color="#258BBC"/>
<stop offset="0.469613" stop-color="#26A7A2"/>
<stop offset="1" stop-color="#26BB91"/>
</linearGradient>
<linearGradient id="paint6_linear" x1="0" y1="11.2545" x2="0.304648" y2="12.4969" gradientUnits="userSpaceOnUse">
<stop stop-color="#258BBC"/>
<stop offset="0.469613" stop-color="#26A7A2"/>
<stop offset="1" stop-color="#26BB91"/>
</linearGradient>
</defs>
</svg>
