<svg width="1400" height="562" viewBox="0 0 1400 562" fill="none" xmlns="http://www.w3.org/2000/svg">
<path opacity="0.1" d="M-5.89258 66H1400.55C1400.55 66 1507.5 529 1399 455C1290.5 381 988.963 392.205 725.871 403.643C427.862 416.599 74.5815 324.982 -33.2666 474.279C-277.171 811.922 -5.89258 66 -5.89258 66Z" fill="url(#paint0_linear)"/>
<path opacity="0.12" d="M-6.55525 0H1400.44C1400.44 0 1457.5 455.5 1400.5 425C1343.5 394.5 661.5 382.5 661.5 382.5C661.5 382.5 61.9999 362.5 -8.00111 458.5C-78.0021 554.5 -6.55525 0 -6.55525 0Z" fill="#399691"/>
<defs>
<linearGradient id="paint0_linear" x1="73" y1="135.486" x2="1338.48" y2="531.072" gradientUnits="userSpaceOnUse">
<stop stop-color="#6F89BC"/>
<stop offset="1" stop-color="#455F91"/>
</linearGradient>
</defs>
</svg>
