<svg width="21" height="15" viewBox="0 0 21 15" fill="none" xmlns="http://www.w3.org/2000/svg">
<path d="M10.5 0.794983C6.48773 0.794983 2.84919 3.21407 0.164314 7.14331C-0.0547714 7.46522 -0.0547714 7.91495 0.164314 8.23687C2.84919 12.1708 6.48773 14.5899 10.5 14.5899C14.5123 14.5899 18.1508 12.1708 20.8357 8.2416C21.0548 7.91969 21.0548 7.46995 20.8357 7.14804C18.1508 3.21407 14.5123 0.794983 10.5 0.794983ZM10.7878 12.5496C8.12442 12.7342 5.92498 10.3151 6.09251 7.37527C6.22998 4.95145 8.01273 2.98684 10.2122 2.83535C12.8756 2.65072 15.075 5.06981 14.9075 8.00963C14.7657 10.4287 12.983 12.3933 10.7878 12.5496ZM10.6546 10.3056C9.21985 10.405 8.03421 9.10319 8.12872 7.52203C8.20175 6.21544 9.16401 5.15975 10.3496 5.07454C11.7844 4.97512 12.9701 6.27698 12.8756 7.85814C12.7983 9.16947 11.836 10.2252 10.6546 10.3056Z" fill="white"/>
</svg>
