<svg width="282" height="41" viewBox="0 0 282 41" fill="none" xmlns="http://www.w3.org/2000/svg">
<path fill-rule="evenodd" clip-rule="evenodd" d="M30.1498 6.07697C31.4176 6.07697 32.5043 7.12065 32.5043 8.54385C32.5043 9.87218 31.4176 11.0107 30.1498 11.0107C28.882 11.0107 27.7953 9.87218 27.7953 8.54385C27.7953 7.12065 28.882 6.07697 30.1498 6.07697Z" fill="#5A4636"/>
<path fill-rule="evenodd" clip-rule="evenodd" d="M23.6347 9.11327C23.6347 8.92351 23.7253 8.63887 23.8159 8.44911C23.997 7.69007 24.3592 7.02591 24.7214 6.36175C25.0837 5.69759 25.8081 4.84367 25.8987 4.08463C25.9893 3.61023 26.0798 3.32559 25.9893 3.13583C25.9893 2.85119 25.8987 2.47167 25.8081 2.18703C25.627 1.71263 25.2648 1.33311 24.9026 1.04847C24.5403 0.858705 24.1781 0.668945 23.7253 0.668945H23.4536C23.0914 0.668945 22.6386 0.858705 22.3669 1.04847C21.9141 1.33311 21.6425 1.71263 21.4614 2.18703C21.2802 2.47167 21.1897 2.85119 21.1897 3.13583C21.1897 3.32559 21.1897 3.61023 21.2802 4.08463C21.4614 4.84367 22.1858 5.69759 22.548 6.36175C22.9103 7.02591 23.2725 7.69007 23.4536 8.44911C23.5442 8.63887 23.5442 8.92351 23.6347 9.11327C23.5442 9.30303 23.5442 9.58767 23.4536 9.87231C23.2725 10.6313 22.9103 11.2955 22.548 11.9597C22.1858 12.5289 21.5519 13.288 21.3708 13.9521C21.1897 14.2368 21.1897 14.5214 21.0991 14.8061V15.0907C21.1897 15.5651 21.2802 15.9446 21.5519 16.3241C21.5519 16.3241 21.5519 16.419 21.6425 16.419C21.8236 16.7037 22.0047 16.9883 22.3669 17.1781C22.6386 17.3678 23.0914 17.5576 23.4536 17.5576H23.7253C24.0875 17.5576 24.4498 17.4627 24.812 17.2729C25.3553 16.9883 26.0798 16.419 26.6232 16.1344C27.2571 15.7549 27.891 15.3753 28.6154 15.0907C28.7966 15.0907 29.0682 14.9958 29.2493 14.9958C29.4305 14.9958 29.7021 15.0907 29.9738 15.0907C30.6983 15.3753 31.3322 15.7549 31.9661 16.1344C32.6 16.419 33.415 17.2729 34.1395 17.3678C34.5017 17.4627 34.7734 17.4627 35.0451 17.4627C35.3167 17.4627 35.679 17.3678 35.9506 17.2729C36.4034 16.9883 36.7657 16.7037 37.0373 16.3241C37.2185 15.9446 37.3996 15.5651 37.3996 15.0907V14.8061C37.3996 14.4265 37.2185 13.9521 37.0373 13.5726C36.7657 13.1931 36.4034 12.9085 35.9506 12.7187C35.679 12.5289 35.3167 12.5289 35.0451 12.4341C34.7734 12.4341 34.5017 12.4341 34.1395 12.5289C33.415 12.7187 32.6 13.4777 31.9661 13.8573C31.3322 14.2368 30.6983 14.5214 29.9738 14.8061C29.7021 14.9009 29.4305 14.9009 29.2493 14.9009C29.0682 14.9009 28.7966 14.9009 28.6154 14.8061C27.891 14.5214 27.2571 14.2368 26.6232 13.8573C26.3515 13.6675 26.0798 13.4777 25.8081 13.288C25.5365 13.0982 25.2648 12.8136 25.0837 12.6238V12.5289C24.9026 12.3392 24.812 12.1494 24.7214 11.9597C24.3592 11.2955 23.997 10.6313 23.8159 9.87231C23.7253 9.58767 23.6347 9.30303 23.6347 9.11327Z" fill="#E42326"/>
<path fill-rule="evenodd" clip-rule="evenodd" d="M30.1498 29.5128C31.4176 29.5128 32.5043 30.6513 32.5043 31.9796C32.5043 33.308 31.4176 34.4465 30.1498 34.4465C28.882 34.4465 27.7953 33.308 27.7953 31.9796C27.7953 30.6513 28.882 29.5128 30.1498 29.5128Z" fill="#5A4636"/>
<path fill-rule="evenodd" clip-rule="evenodd" d="M23.6347 31.2205C23.6347 31.5051 23.7253 31.6949 23.8159 31.9795C23.997 32.7385 24.3592 33.4027 24.7214 34.0669C25.0837 34.731 25.8081 35.5849 25.8987 36.344C25.9893 36.7235 26.0798 37.0081 25.9893 37.2928C25.9893 37.5774 25.8987 37.9569 25.8081 38.2416C25.627 38.6211 25.2648 39.0006 24.9026 39.2853C24.5403 39.5699 24.1781 39.6648 23.7253 39.7597H23.4536C23.0914 39.6648 22.6386 39.5699 22.3669 39.2853C21.9141 39.0006 21.6425 38.6211 21.4614 38.2416C21.2802 37.9569 21.1897 37.5774 21.1897 37.2928C21.1897 37.0081 21.1897 36.7235 21.2802 36.344C21.4614 35.5849 22.1858 34.731 22.548 34.0669C22.9103 33.4027 23.2725 32.7385 23.4536 31.9795C23.5442 31.6949 23.5442 31.5051 23.6347 31.2205C23.5442 31.0307 23.5442 30.7461 23.4536 30.5563C23.2725 29.7972 22.9103 29.1331 22.548 28.4689C22.1858 27.8996 21.5519 27.0457 21.3708 26.3816C21.1897 26.0969 21.1897 25.8123 21.0991 25.5276V25.243C21.1897 24.8635 21.2802 24.484 21.5519 24.1044C21.5519 24.0096 21.5519 24.0096 21.6425 24.0096C21.8236 23.63 22.0047 23.4403 22.3669 23.2505C22.6386 22.9659 23.0914 22.871 23.4536 22.7761H23.7253C24.0875 22.871 24.4498 22.9659 24.812 23.1556C25.3553 23.4403 26.0798 24.0096 26.6232 24.2942C27.2571 24.6737 27.891 25.0532 28.6154 25.243C28.7966 25.3379 29.0682 25.3379 29.2493 25.4328C29.4305 25.3379 29.7021 25.3379 29.9738 25.243C30.6983 25.0532 31.3322 24.6737 31.9661 24.2942C32.6 23.9147 33.415 23.1556 34.1395 22.9659C34.5017 22.871 34.7734 22.871 35.0451 22.871C35.3167 22.9659 35.679 23.0608 35.9506 23.1556C36.4034 23.3454 36.7657 23.63 37.0373 24.1044C37.2185 24.484 37.3996 24.8635 37.3996 25.243V25.5276C37.3996 26.002 37.2185 26.3816 37.0373 26.7611C36.7657 27.1406 36.4034 27.5201 35.9506 27.7099C35.679 27.8048 35.3167 27.8996 35.0451 27.8996C34.7734 27.9945 34.5017 27.8996 34.1395 27.8048C33.415 27.7099 32.6 26.9508 31.9661 26.5713C31.3322 26.1918 30.6983 25.8123 29.9738 25.6225C29.7021 25.5276 29.4305 25.5276 29.2493 25.4328C29.0682 25.5276 28.7966 25.5276 28.6154 25.6225C27.891 25.8123 27.2571 26.1918 26.6232 26.5713C26.3515 26.6662 26.0798 26.856 25.8081 27.1406C25.5365 27.2355 25.2648 27.615 25.0837 27.8048C24.9026 28.0894 24.812 28.2792 24.7214 28.4689C24.3592 29.1331 23.997 29.7972 23.8159 30.5563C23.7253 30.7461 23.6347 31.0307 23.6347 31.2205Z" fill="#E42326"/>
<path fill-rule="evenodd" clip-rule="evenodd" d="M7.51125 6.07697C8.86962 6.07697 9.95631 7.12065 9.95631 8.54385C9.95631 9.87218 8.86962 11.0107 7.51125 11.0107C6.24343 11.0107 5.15674 9.87218 5.15674 8.54385C5.15674 7.12065 6.24343 6.07697 7.51125 6.07697Z" fill="#5A4636"/>
<path fill-rule="evenodd" clip-rule="evenodd" d="M13.7648 9.11327C13.7648 8.92351 13.6743 8.63887 13.5837 8.44911C13.4026 7.69007 13.0404 7.02591 12.6781 6.36175C12.3159 5.69759 11.5914 4.84367 11.4103 4.08463C11.3198 3.61023 11.3198 3.32559 11.4103 3.13583C11.4103 2.85119 11.5009 2.47167 11.5914 2.18703C11.7725 1.71263 12.1348 1.33311 12.497 1.04847C12.8592 0.858705 13.2215 0.668945 13.6743 0.668945H13.9459C14.3082 0.668945 14.761 0.858705 15.0326 1.04847C15.4854 1.33311 15.7571 1.71263 15.9382 2.18703C16.1193 2.47167 16.1193 2.85119 16.2099 3.13583C16.2099 3.32559 16.2099 3.61023 16.1193 4.08463C15.9382 4.84367 15.2137 5.69759 14.8515 6.36175C14.4893 7.02591 14.1271 7.69007 13.9459 8.44911C13.8554 8.63887 13.8554 8.92351 13.7648 9.11327C13.8554 9.30303 13.8554 9.58767 13.9459 9.87231C14.1271 10.6313 14.4893 11.2955 14.8515 11.9597C15.2137 12.5289 15.8477 13.288 16.0288 13.9521C16.1193 14.2368 16.2099 14.5214 16.2099 14.8061V15.0907C16.2099 15.5651 16.1193 15.9446 15.8477 16.3241C15.8477 16.3241 15.8477 16.419 15.7571 16.419C15.576 16.7037 15.3949 16.9883 15.0326 17.1781C14.761 17.3678 14.3082 17.5576 13.9459 17.5576H13.6743C13.312 17.5576 12.9498 17.4627 12.5876 17.2729C11.9537 16.9883 11.3198 16.419 10.7764 16.1344C10.1425 15.7549 9.50859 15.3753 8.78413 15.0907C8.60301 15.0907 8.33134 14.9958 8.15022 14.9958C7.87855 14.9958 7.69743 15.0907 7.42576 15.0907C6.70129 15.3753 6.06739 15.7549 5.43348 16.1344C4.79957 16.419 3.98455 17.2729 3.26009 17.3678C2.8073 17.4627 2.53562 17.4627 2.35451 17.4627C2.08283 17.4627 1.7206 17.3678 1.44893 17.2729C0.996138 16.9883 0.633906 16.7037 0.362232 16.3241C0.181116 15.9446 0 15.5651 0 15.0907V14.8061C0 14.4265 0.181116 13.9521 0.362232 13.5726C0.633906 13.1931 0.996138 12.9085 1.44893 12.7187C1.7206 12.5289 2.08283 12.5289 2.35451 12.4341C2.53562 12.4341 2.8073 12.4341 3.26009 12.5289C3.98455 12.7187 4.79957 13.4777 5.43348 13.8573C6.06739 14.2368 6.70129 14.5214 7.42576 14.8061C7.69743 14.9009 7.87855 14.9009 8.15022 14.9009C8.33134 14.9009 8.60301 14.9009 8.78413 14.8061C9.50859 14.5214 10.1425 14.2368 10.7764 13.8573C11.0481 13.6675 11.3198 13.4777 11.5914 13.288C11.8631 13.0982 12.1348 12.8136 12.3159 12.6238V12.5289C12.4064 12.3392 12.5876 12.1494 12.6781 11.9597C13.0404 11.2955 13.4026 10.6313 13.5837 9.87231C13.6743 9.58767 13.7648 9.30303 13.7648 9.11327Z" fill="#E42326"/>
<path fill-rule="evenodd" clip-rule="evenodd" d="M7.51125 29.5128C8.86962 29.5128 9.95631 30.6513 9.95631 31.9796C9.95631 33.308 8.86962 34.4465 7.51125 34.4465C6.24343 34.4465 5.15674 33.308 5.15674 31.9796C5.15674 30.6513 6.24343 29.5128 7.51125 29.5128Z" fill="#5A4636"/>
<path fill-rule="evenodd" clip-rule="evenodd" d="M13.7648 31.2204C13.7648 31.505 13.6743 31.6948 13.5837 31.9794C13.4026 32.7385 13.0404 33.4026 12.6781 34.0668C12.3159 34.731 11.5914 35.5849 11.4103 36.3439C11.3198 36.7234 11.3198 37.0081 11.4103 37.2927C11.4103 37.5774 11.5009 37.9569 11.5914 38.2415C11.7725 38.621 12.1348 39.0006 12.497 39.2852C12.8592 39.5698 13.2215 39.6647 13.6743 39.7596H13.9459C14.3082 39.6647 14.761 39.5698 15.0326 39.2852C15.4854 39.0006 15.7571 38.621 15.9382 38.2415C16.1193 37.9569 16.1193 37.5774 16.2099 37.2927C16.2099 37.0081 16.2099 36.7234 16.1193 36.3439C15.9382 35.5849 15.2137 34.731 14.8515 34.0668C14.4893 33.4026 14.1271 32.7385 13.9459 31.9794C13.8554 31.6948 13.8554 31.505 13.7648 31.2204C13.8554 31.0306 13.8554 30.746 13.9459 30.5562C14.1271 29.7972 14.4893 29.133 14.8515 28.4689C15.2137 27.8996 15.8477 27.0457 16.0288 26.3815C16.1193 26.0969 16.2099 25.8122 16.2099 25.5276V25.2429C16.2099 24.8634 16.1193 24.4839 15.8477 24.1044C15.8477 24.0095 15.8477 24.0095 15.7571 24.0095C15.576 23.63 15.3949 23.4402 15.0326 23.2505C14.761 22.9658 14.3082 22.8709 13.9459 22.7761H13.6743C13.312 22.8709 12.9498 22.9658 12.5876 23.1556C11.9537 23.4402 11.3198 24.0095 10.7764 24.2941C10.1425 24.6737 9.50859 25.0532 8.78413 25.2429C8.60301 25.3378 8.33134 25.3378 8.15022 25.4327C7.87855 25.3378 7.69743 25.3378 7.42576 25.2429C6.70129 25.0532 6.06739 24.6737 5.43348 24.2941C4.79957 23.9146 3.98455 23.1556 3.26009 22.9658C2.8073 22.8709 2.53562 22.8709 2.35451 22.8709C2.08283 22.9658 1.7206 23.0607 1.44893 23.1556C0.996138 23.3453 0.633906 23.63 0.362232 24.1044C0.181116 24.4839 0 24.8634 0 25.2429V25.5276C0 26.002 0.181116 26.3815 0.362232 26.761C0.633906 27.1405 0.996138 27.5201 1.44893 27.7098C1.7206 27.8047 2.08283 27.8996 2.35451 27.8996C2.53562 27.9945 2.8073 27.8996 3.26009 27.8047C3.98455 27.7098 4.79957 26.9508 5.43348 26.5713C6.06739 26.1917 6.70129 25.8122 7.42576 25.6225C7.69743 25.5276 7.87855 25.5276 8.15022 25.4327C8.33134 25.5276 8.60301 25.5276 8.78413 25.6225C9.50859 25.8122 10.1425 26.1917 10.7764 26.5713C11.0481 26.6661 11.3198 26.8559 11.5914 27.1405C11.8631 27.2354 12.1348 27.6149 12.3159 27.8047C12.4064 28.0893 12.5876 28.2791 12.6781 28.4689C13.0404 29.133 13.4026 29.7972 13.5837 30.5562C13.6743 30.746 13.7648 31.0306 13.7648 31.2204Z" fill="#E42326"/>
<path d="M61.5823 1.14365V28.2793H79.2411C82.139 28.2793 84.1312 27.7101 85.3085 26.4766C86.3952 25.3381 87.0291 23.2507 87.0291 20.4043C87.0291 17.463 86.3046 15.3757 85.0368 14.1422C83.6784 13.0037 81.4145 12.3395 78.3355 12.3395H64.1179V3.89517H84.8557V1.14365H61.5823ZM64.1179 15.091H79.06C81.0523 15.091 82.5012 15.4705 83.2257 16.2296C84.0407 17.0835 84.4029 18.4118 84.4029 20.4992C84.4029 22.4917 84.0407 23.82 83.3162 24.4841C82.5917 25.2432 81.2334 25.5278 79.3317 25.5278H64.1179V15.091ZM91.557 28.2793H88.6591L101.518 1.14365H105.503L118.272 28.2793H115.283L112.114 21.5429H94.7265L91.557 28.2793ZM96.0849 18.7913H110.846L103.42 3.13613L96.0849 18.7913ZM120.807 28.2793V1.14365H137.47C140.549 1.14365 142.813 1.80781 144.171 3.04125C145.53 4.36957 146.164 6.45693 146.164 9.49309C146.164 12.4344 145.53 14.4269 144.262 15.4705C142.994 16.5142 140.73 17.0835 137.56 17.0835H123.343V28.2793H120.807ZM123.343 14.332H138.285C140.368 14.332 141.726 14.0473 142.451 13.4781C143.266 12.8139 143.628 11.4856 143.628 9.49309C143.628 7.50061 143.266 5.98253 142.451 5.12861C141.726 4.27469 140.368 3.89517 138.557 3.89517H123.343V14.332ZM169.075 28.3742H158.208C154.857 28.3742 152.503 27.7101 151.144 26.192C149.786 24.7688 149.152 22.207 149.152 18.6965V10.7265C149.152 7.21597 149.786 4.65421 151.235 3.13613C152.593 1.61805 154.948 0.859009 158.208 0.859009H169.075C175.052 0.859009 178.04 3.42077 178.04 8.54429H175.504C175.504 6.93133 175.052 5.69789 174.146 4.93885C173.15 3.99005 171.429 3.61053 169.075 3.61053H158.298C155.763 3.61053 154.042 4.08493 153.046 5.03373C152.14 6.07741 151.688 7.97501 151.688 10.7265V18.6965C151.688 21.3531 152.14 23.1558 153.046 24.1995C154.042 25.1483 155.763 25.6227 158.298 25.6227H169.075C171.429 25.6227 173.059 25.2432 174.055 24.4841C175.052 23.6302 175.504 22.3968 175.504 20.5941H178.04C178.04 23.2507 177.406 25.1483 175.957 26.4766C174.599 27.7101 172.335 28.3742 169.075 28.3742Z" fill="#618D2D" stroke="#618D2D" stroke-width="0.865566" stroke-linejoin="round"/>
<path d="M220.783 1.23822H215.349L202.943 24.1992L190.536 1.23822H185.103V28.1842H187.639V3.42046H189.087L202.309 28.1842H203.577L216.889 3.42046H218.247V28.1842H220.783V1.23822ZM281.457 28.1842H250.667V25.5275H252.025C253.021 24.6736 253.836 23.7248 254.38 22.5862C254.923 21.5426 255.195 20.2142 255.195 18.6013V1.23822H279.464V25.5275H281.457V28.1842ZM225.039 28.1842V1.23822H246.773V3.89486H227.665V12.9085H246.32V15.5651H227.665V25.5275H246.863V28.1842H225.039ZM276.838 25.5275V3.98974H257.73V17.8422C257.73 19.4552 257.549 20.9733 257.097 22.3016C256.644 23.7248 255.919 24.7685 255.014 25.5275H276.838Z" fill="#618D2D" stroke="#618D2D" stroke-width="0.865566"/>
<path d="M67.3779 35.964L66.8345 36.2487C66.2912 35.7743 65.5667 35.4896 64.7517 35.4896C64.0272 35.4896 63.3933 35.6794 62.9405 35.964C62.4877 36.3435 62.216 36.7231 62.216 37.1975C62.216 37.577 62.3066 37.8616 62.5783 38.1463C62.7594 38.4309 63.1216 38.6207 63.4839 38.8104C63.8461 38.9053 64.2083 39.0002 64.7517 39.0002C65.5667 39.0002 66.2912 38.7155 66.8345 38.2411L67.3779 38.5258C67.1062 38.8104 66.7439 39.0951 66.2912 39.2848C65.8384 39.4746 65.295 39.4746 64.6611 39.4746C63.7555 39.4746 63.0311 39.2848 62.3972 38.9053C61.7633 38.4309 61.4916 37.8616 61.4916 37.2923C61.4916 36.8179 61.6727 36.4384 61.9444 36.0589C62.216 35.7743 62.5783 35.4896 63.1216 35.2999C63.5744 35.0152 64.1178 34.9203 64.7517 34.9203C65.1139 34.9203 65.4761 35.0152 65.8384 35.1101C66.2006 35.205 66.5628 35.2999 66.7439 35.3947C67.0156 35.5845 67.1967 35.7743 67.3779 35.964ZM71.6341 34.9203C72.4491 34.9203 73.2641 35.205 73.8075 35.6794C74.3508 36.1538 74.6225 36.6282 74.6225 37.2923C74.6225 37.8616 74.3508 38.4309 73.8075 38.8104C73.1736 39.2848 72.4491 39.4746 71.6341 39.4746C70.7285 39.4746 70.004 39.2848 69.3701 38.8104C68.8268 38.4309 68.5551 37.8616 68.5551 37.2923C68.5551 36.6282 68.8268 36.1538 69.3701 35.6794C69.9135 35.205 70.7285 34.9203 71.6341 34.9203ZM71.6341 35.4896C71.0002 35.4896 70.4568 35.6794 70.004 36.0589C69.5512 36.3435 69.2796 36.8179 69.2796 37.2923C69.2796 37.577 69.4607 37.8616 69.6418 38.1463C69.8229 38.4309 70.0946 38.6207 70.4568 38.8104C70.8191 38.9053 71.1813 39.0002 71.6341 39.0002C71.9963 39.0002 72.3585 38.9053 72.7208 38.8104C73.083 38.6207 73.3547 38.4309 73.5358 38.1463C73.7169 37.8616 73.898 37.577 73.898 37.2923C73.898 36.8179 73.6264 36.3435 73.1736 36.0589C72.7208 35.6794 72.1774 35.4896 71.6341 35.4896ZM77.7015 39.3797H75.9809V35.1101H77.7015C78.3354 35.1101 78.7882 35.205 79.0598 35.3947C79.3315 35.5845 79.4221 35.8691 79.4221 36.1538C79.4221 36.6282 79.1504 36.9128 78.6976 37.0077C79.4221 37.2923 79.7843 37.6719 79.7843 38.2411C79.7843 39.0002 79.0598 39.3797 77.7015 39.3797ZM76.7053 35.5845V36.9128H77.2487C77.7015 36.9128 77.9731 36.9128 78.0637 36.8179C78.2448 36.8179 78.3354 36.7231 78.5165 36.6282C78.607 36.5333 78.6976 36.4384 78.6976 36.2487C78.6976 36.0589 78.607 35.964 78.5165 35.7743C78.3354 35.6794 78.2448 35.5845 78.0637 35.5845C77.9731 35.5845 77.7015 35.5845 77.2487 35.5845H76.7053ZM76.7053 37.3872V38.9053H77.5204C77.8826 38.9053 78.1543 38.9053 78.3354 38.9053C78.5165 38.8104 78.6976 38.8104 78.7882 38.6207C78.8787 38.5258 78.9693 38.336 78.9693 38.2411C78.9693 37.9565 78.8787 37.7667 78.607 37.6719C78.4259 37.4821 78.1543 37.3872 77.8826 37.3872H76.7053ZM81.1427 35.1101H81.8671V35.8691C82.1388 35.5845 82.501 35.2999 82.8633 35.205C83.2255 35.0152 83.6783 34.9203 84.1311 34.9203C85.0367 34.9203 85.6706 35.205 86.3045 35.5845C86.8478 36.0589 87.1195 36.6282 87.1195 37.1975C87.1195 37.8616 86.8478 38.4309 86.3045 38.8104C85.6706 39.2848 85.0367 39.4746 84.2216 39.4746C83.7689 39.4746 83.3161 39.4746 82.9538 39.2848C82.501 39.1899 82.1388 38.9053 81.8671 38.6207V40.9927H81.1427V35.1101ZM84.1311 35.4896C83.4972 35.4896 82.9538 35.6794 82.501 35.964C82.0483 36.3435 81.7766 36.7231 81.7766 37.2923C81.7766 37.577 81.9577 37.8616 82.1388 38.1463C82.3199 38.4309 82.5916 38.6207 82.9538 38.8104C83.3161 38.9053 83.6783 39.0002 84.1311 39.0002C84.4933 39.0002 84.8556 38.9053 85.2178 38.8104C85.58 38.6207 85.8517 38.4309 86.1234 38.1463C86.3045 37.8616 86.395 37.577 86.395 37.2923C86.395 36.9128 86.3045 36.6282 86.1234 36.3435C85.8517 36.0589 85.58 35.8691 85.2178 35.7743C84.9461 35.5845 84.4933 35.4896 84.1311 35.4896ZM93.4586 37.9565L94.0925 38.2411C93.9114 38.5258 93.6397 38.8104 93.368 39.0002C93.0963 39.0951 92.8247 39.2848 92.4624 39.3797C92.1002 39.4746 91.738 39.4746 91.2852 39.4746C90.3796 39.4746 89.6551 39.2848 89.1118 38.8104C88.5684 38.336 88.2968 37.8616 88.2968 37.2923C88.2968 36.7231 88.4779 36.2487 88.9307 35.7743C89.5646 35.205 90.289 34.9203 91.2852 34.9203C92.2813 34.9203 93.0963 35.205 93.6397 35.7743C94.0925 36.1538 94.2736 36.7231 94.2736 37.2923H89.0212C89.0212 37.7667 89.2929 38.2411 89.6551 38.5258C90.1079 38.8104 90.6513 39.0002 91.2852 39.0002C91.5569 39.0002 91.8285 39.0002 92.1002 38.9053C92.3719 38.8104 92.6435 38.7155 92.8247 38.6207C93.0058 38.4309 93.2775 38.2411 93.4586 37.9565ZM93.4586 36.8179C93.368 36.5333 93.1869 36.2487 93.0058 36.0589C92.8247 35.8691 92.553 35.7743 92.2813 35.6794C91.9191 35.5845 91.6474 35.4896 91.2852 35.4896C90.7418 35.4896 90.1985 35.5845 89.8363 35.8691C89.474 36.0589 89.2929 36.4384 89.1118 36.8179H93.4586ZM101.971 35.1101H102.243L104.144 39.3797H103.42L101.971 36.2487L99.7071 39.3797H99.526L97.3526 36.2487L95.9036 39.3797H95.0886L97.0809 35.1101H97.262L99.6165 38.4309L101.971 35.1101ZM110.212 37.9565L110.846 38.2411C110.574 38.5258 110.393 38.8104 110.121 39.0002C109.85 39.0951 109.487 39.2848 109.125 39.3797C108.853 39.4746 108.401 39.4746 108.038 39.4746C107.042 39.4746 106.318 39.2848 105.774 38.8104C105.231 38.336 104.959 37.8616 104.959 37.2923C104.959 36.7231 105.231 36.2487 105.684 35.7743C106.227 35.205 107.042 34.9203 107.948 34.9203C108.944 34.9203 109.759 35.205 110.393 35.7743C110.755 36.1538 111.027 36.7231 111.027 37.2923H105.774C105.774 37.7667 105.956 38.2411 106.408 38.5258C106.861 38.8104 107.314 39.0002 107.948 39.0002C108.22 39.0002 108.582 39.0002 108.853 38.9053C109.125 38.8104 109.306 38.7155 109.487 38.6207C109.759 38.4309 109.94 38.2411 110.212 37.9565ZM110.212 36.8179C110.121 36.5333 109.94 36.2487 109.759 36.0589C109.578 35.8691 109.306 35.7743 108.944 35.6794C108.672 35.5845 108.31 35.4896 107.948 35.4896C107.405 35.4896 106.952 35.5845 106.499 35.8691C106.227 36.0589 105.956 36.4384 105.865 36.8179H110.212ZM116.46 37.2923H113.11V39.3797H112.385V35.1101H113.11V36.8179H116.46V35.1101H117.275V39.3797H116.46V37.2923ZM123.071 37.2923H119.63V39.3797H118.905V35.1101H119.63V36.8179H123.071V35.1101H123.796V39.3797H123.071V37.2923ZM126.15 36.8179H126.874C127.418 36.8179 127.871 36.8179 128.233 36.9128C128.505 36.9128 128.867 37.1026 129.048 37.2923C129.32 37.577 129.41 37.8616 129.41 38.1463C129.41 38.4309 129.229 38.8104 128.867 39.0002C128.595 39.2848 128.052 39.3797 127.418 39.3797H125.426V35.1101H126.15V36.8179ZM126.241 37.2923V38.9053H127.056C128.052 38.9053 128.595 38.7155 128.595 38.1463C128.595 37.9565 128.505 37.8616 128.414 37.6719C128.323 37.577 128.142 37.4821 127.961 37.3872C127.78 37.2923 127.418 37.2923 126.874 37.2923H126.241ZM130.406 35.1101H131.221V39.3797H130.406V35.1101ZM137.651 37.9565L138.285 38.2411C138.104 38.5258 137.832 38.8104 137.56 39.0002C137.289 39.0951 137.017 39.2848 136.655 39.3797C136.293 39.4746 135.93 39.4746 135.568 39.4746C134.572 39.4746 133.847 39.2848 133.304 38.8104C132.761 38.336 132.489 37.8616 132.489 37.2923C132.489 36.7231 132.761 36.2487 133.214 35.7743C133.757 35.205 134.481 34.9203 135.478 34.9203C136.474 34.9203 137.289 35.205 137.832 35.7743C138.285 36.1538 138.466 36.7231 138.466 37.2923H133.214C133.304 37.7667 133.485 38.2411 133.938 38.5258C134.3 38.8104 134.844 39.0002 135.478 39.0002C135.749 39.0002 136.021 39.0002 136.293 38.9053C136.564 38.8104 136.836 38.7155 137.017 38.6207C137.198 38.4309 137.47 38.2411 137.651 37.9565ZM137.651 36.8179C137.56 36.5333 137.47 36.2487 137.289 36.0589C137.017 35.8691 136.836 35.7743 136.474 35.6794C136.202 35.5845 135.84 35.4896 135.478 35.4896C134.934 35.4896 134.391 35.5845 134.029 35.8691C133.757 36.0589 133.485 36.4384 133.304 36.8179H137.651ZM149.242 35.1101H149.423L151.416 39.3797H150.601L149.152 36.2487L146.978 39.3797H146.797L144.533 36.2487L143.175 39.3797H142.36L144.352 35.1101H144.533L146.888 38.4309L149.242 35.1101ZM157.393 37.9565L158.026 38.2411C157.845 38.5258 157.574 38.8104 157.302 39.0002C157.03 39.0951 156.759 39.2848 156.396 39.3797C156.034 39.4746 155.672 39.4746 155.219 39.4746C154.314 39.4746 153.589 39.2848 153.046 38.8104C152.502 38.336 152.231 37.8616 152.231 37.2923C152.231 36.7231 152.412 36.2487 152.865 35.7743C153.499 35.205 154.223 34.9203 155.219 34.9203C156.215 34.9203 157.03 35.205 157.574 35.7743C158.026 36.1538 158.208 36.7231 158.208 37.2923H152.955C153.046 37.7667 153.227 38.2411 153.68 38.5258C154.042 38.8104 154.585 39.0002 155.219 39.0002C155.491 39.0002 155.763 39.0002 156.034 38.9053C156.306 38.8104 156.578 38.7155 156.759 38.6207C156.94 38.4309 157.211 38.2411 157.393 37.9565ZM157.393 36.8179C157.302 36.5333 157.211 36.2487 156.94 36.0589C156.759 35.8691 156.487 35.7743 156.215 35.6794C155.944 35.5845 155.581 35.4896 155.219 35.4896C154.676 35.4896 154.132 35.5845 153.77 35.8691C153.408 36.0589 153.227 36.4384 153.046 36.8179H157.393ZM159.657 38.9053L161.92 35.1101H162.283L164.547 38.9053H165.181V39.949H164.456V39.3797H159.657V39.949H158.932V38.9053H159.657ZM162.102 35.964L160.381 38.9053H163.732L162.102 35.964ZM166.992 35.1101V38.2411L171.248 35.1101V39.3797H170.523V36.2487L166.267 39.3797H166.177V35.1101H166.992ZM178.402 39.3797H172.969V35.1101H173.693V38.9053H177.044V35.1101H177.859V38.9053H179.126V40.1387H178.402V39.3797ZM180.847 35.1101V38.2411L185.103 35.1101H185.194V39.3797H184.379V36.2487L180.213 39.3797H180.123V35.1101H180.847ZM190.99 37.2923H187.548V39.3797H186.824V35.1101H187.548V36.8179H190.99V35.1101H191.714V39.3797H190.99V37.2923ZM198.959 35.964L198.415 36.2487C197.872 35.7743 197.238 35.4896 196.333 35.4896C195.608 35.4896 194.974 35.6794 194.521 35.964C194.069 36.3435 193.797 36.7231 193.797 37.1975C193.797 37.577 193.978 37.8616 194.159 38.1463C194.34 38.4309 194.702 38.6207 195.065 38.8104C195.427 38.9053 195.88 39.0002 196.333 39.0002C197.148 39.0002 197.872 38.7155 198.415 38.2411L198.959 38.5258C198.687 38.8104 198.325 39.0951 197.872 39.2848C197.419 39.4746 196.876 39.4746 196.242 39.4746C195.336 39.4746 194.612 39.2848 193.978 38.9053C193.344 38.4309 193.072 37.8616 193.072 37.2923C193.072 36.8179 193.254 36.4384 193.525 36.0589C193.797 35.7743 194.159 35.4896 194.702 35.2999C195.155 35.0152 195.699 34.9203 196.333 34.9203C196.695 34.9203 197.057 35.0152 197.419 35.1101C197.781 35.205 198.144 35.2999 198.325 35.3947C198.596 35.5845 198.868 35.7743 198.959 35.964ZM200.408 35.1101H201.132V36.9128L203.849 35.1101H204.936L201.947 37.0077L205.117 39.3797H204.121L201.404 37.3872L201.132 37.577V39.3797H200.408V35.1101ZM206.656 35.1101V38.2411L210.912 35.1101H211.003V39.3797H210.278V36.2487L206.022 39.3797H205.932V35.1101H206.656ZM217.523 37.9565L218.157 38.2411C217.976 38.5258 217.704 38.8104 217.433 39.0002C217.161 39.0951 216.889 39.2848 216.527 39.3797C216.165 39.4746 215.803 39.4746 215.44 39.4746C214.444 39.4746 213.72 39.2848 213.176 38.8104C212.633 38.336 212.361 37.8616 212.361 37.2923C212.361 36.7231 212.633 36.2487 213.086 35.7743C213.629 35.205 214.354 34.9203 215.35 34.9203C216.346 34.9203 217.161 35.205 217.704 35.7743C218.157 36.1538 218.338 36.7231 218.338 37.2923H213.176C213.176 37.7667 213.357 38.2411 213.81 38.5258C214.172 38.8104 214.716 39.0002 215.35 39.0002C215.621 39.0002 215.893 39.0002 216.165 38.9053C216.436 38.8104 216.708 38.7155 216.889 38.6207C217.07 38.4309 217.342 38.2411 217.523 37.9565ZM217.523 36.8179C217.433 36.5333 217.342 36.2487 217.161 36.0589C216.889 35.8691 216.708 35.7743 216.346 35.6794C216.074 35.5845 215.712 35.4896 215.35 35.4896C214.806 35.4896 214.263 35.5845 213.901 35.8691C213.629 36.0589 213.357 36.4384 213.176 36.8179H217.523ZM222.142 35.1101H225.945V35.5845H224.406V39.3797H223.681V35.5845H222.142V35.1101ZM231.831 37.9565L232.465 38.2411C232.284 38.5258 232.012 38.8104 231.741 39.0002C231.469 39.0951 231.197 39.2848 230.835 39.3797C230.563 39.4746 230.111 39.4746 229.748 39.4746C228.752 39.4746 228.028 39.2848 227.484 38.8104C226.941 38.336 226.669 37.8616 226.669 37.2923C226.669 36.7231 226.941 36.2487 227.394 35.7743C227.937 35.205 228.662 34.9203 229.658 34.9203C230.654 34.9203 231.469 35.205 232.012 35.7743C232.465 36.1538 232.646 36.7231 232.646 37.2923H227.484C227.484 37.7667 227.666 38.2411 228.118 38.5258C228.481 38.8104 229.024 39.0002 229.658 39.0002C229.93 39.0002 230.201 39.0002 230.473 38.9053C230.745 38.8104 231.016 38.7155 231.197 38.6207C231.378 38.4309 231.65 38.2411 231.831 37.9565ZM231.831 36.8179C231.741 36.5333 231.65 36.2487 231.469 36.0589C231.197 35.8691 231.016 35.7743 230.654 35.6794C230.382 35.5845 230.02 35.4896 229.658 35.4896C229.115 35.4896 228.571 35.5845 228.209 35.8691C227.937 36.0589 227.666 36.4384 227.484 36.8179H231.831ZM233.371 35.1101H234.276L235.816 36.6282L237.355 35.1101H238.261L236.269 37.1026L238.533 39.3797H237.627L235.816 37.577L234.095 39.3797H233.19L235.363 37.1026L233.371 35.1101ZM243.423 37.2923H240.072V39.3797H239.348V35.1101H240.072V36.8179H243.423V35.1101H244.147V39.3797H243.423V37.2923ZM248.585 34.9203C249.49 34.9203 250.215 35.205 250.848 35.6794C251.392 36.1538 251.663 36.6282 251.663 37.2923C251.663 37.8616 251.301 38.4309 250.758 38.8104C250.215 39.2848 249.49 39.4746 248.585 39.4746C247.679 39.4746 246.954 39.2848 246.411 38.8104C245.868 38.4309 245.596 37.8616 245.596 37.2923C245.596 36.6282 245.868 36.1538 246.321 35.6794C246.954 35.205 247.679 34.9203 248.585 34.9203ZM248.585 35.4896C247.951 35.4896 247.407 35.6794 246.954 36.0589C246.592 36.3435 246.321 36.8179 246.321 37.2923C246.321 37.577 246.411 37.8616 246.592 38.1463C246.864 38.4309 247.136 38.6207 247.498 38.8104C247.77 38.9053 248.222 39.0002 248.585 39.0002C249.037 39.0002 249.4 38.9053 249.762 38.8104C250.124 38.6207 250.396 38.4309 250.577 38.1463C250.758 37.8616 250.848 37.577 250.848 37.2923C250.848 36.8179 250.667 36.3435 250.215 36.0589C249.762 35.6794 249.218 35.4896 248.585 35.4896ZM257.912 39.3797H257.097L255.195 36.2487L253.294 39.3797H252.479L255.105 35.1101H255.195L257.912 39.3797ZM261.806 34.9203C262.712 34.9203 263.436 35.205 264.07 35.6794C264.613 36.1538 264.794 36.6282 264.794 37.2923C264.794 37.8616 264.523 38.4309 263.979 38.8104C263.436 39.2848 262.712 39.4746 261.806 39.4746C260.9 39.4746 260.176 39.2848 259.633 38.8104C259.089 38.4309 258.818 37.8616 258.818 37.2923C258.818 36.6282 258.999 36.1538 259.542 35.6794C260.176 35.205 260.9 34.9203 261.806 34.9203ZM261.806 35.4896C261.172 35.4896 260.629 35.6794 260.176 36.0589C259.723 36.3435 259.542 36.8179 259.542 37.2923C259.542 37.577 259.633 37.8616 259.814 38.1463C260.085 38.4309 260.357 38.6207 260.629 38.8104C260.991 38.9053 261.353 39.0002 261.806 39.0002C262.259 39.0002 262.621 38.9053 262.983 38.8104C263.255 38.6207 263.527 38.4309 263.798 38.1463C263.979 37.8616 264.07 37.577 264.07 37.2923C264.07 36.8179 263.889 36.3435 263.436 36.0589C262.983 35.6794 262.44 35.4896 261.806 35.4896ZM266.968 35.5845V39.3797H266.243V35.1101H269.141V35.5845H266.968ZM270.862 35.1101V38.2411L275.209 35.1101V39.3797H274.484V36.2487L270.228 39.3797H270.137V35.1101H270.862ZM277.654 35.1101V38.2411L281.91 35.1101H282V39.3797H281.185V36.2487L277.02 39.3797H276.929V35.1101H277.654Z" fill="#2B2A29"/>
</svg>
