<svg width="17" height="19" viewBox="0 0 17 19" fill="none" xmlns="http://www.w3.org/2000/svg">
<path d="M11.3528 2.73654C8.75932 -0.01537 4.53821 -0.01537 1.9447 2.73654C-0.648235 5.48905 -0.648235 9.96739 1.9447 12.7199C4.25429 15.1699 7.85134 15.4324 10.4432 13.5193C10.4977 13.7931 10.6225 14.0544 10.8232 14.2674L14.6002 18.275C15.1506 18.8579 16.04 18.8579 16.5876 18.275C17.1375 17.6916 17.1375 16.7478 16.5876 16.1662L12.8106 12.1573C12.6111 11.9462 12.3643 11.8131 12.1062 11.7553C13.9103 9.00455 13.663 5.18838 11.3528 2.73654ZM10.1604 11.4546C8.22409 13.5091 5.07287 13.5091 3.13716 11.4546C1.20202 9.40006 1.20202 6.05697 3.13716 4.00243C5.07287 1.94849 8.22409 1.94849 10.1604 4.00243C12.0966 6.05697 12.0966 9.40006 10.1604 11.4546Z" fill="white"/>
</svg>
