<svg width="17" height="19" viewBox="0 0 17 19" fill="none" xmlns="http://www.w3.org/2000/svg">
<g opacity="0.87">
<path d="M0.681376 18.7123H16.3186C16.5275 18.7123 16.7222 18.6164 16.8529 18.4493C16.9664 18.3044 17.0167 18.1205 16.9951 17.9316C16.6284 14.7178 14.8718 12.0397 12.467 10.6119C11.4506 11.7553 10.0474 12.4636 8.50002 12.4636C6.95267 12.4636 5.5494 11.7553 4.53303 10.6119C2.12818 12.0393 0.37122 14.7178 0.00486535 17.9316C-0.016697 18.1205 0.033889 18.3047 0.147108 18.4493C0.277783 18.6164 0.472529 18.7123 0.681376 18.7123Z" fill="white"/>
<path d="M4.97465 9.91685C5.0659 10.0245 5.16118 10.1271 5.25982 10.2263C6.12136 11.0934 7.25432 11.6252 8.49823 11.6252C9.74214 11.6252 10.8751 11.0929 11.7366 10.2263C11.8353 10.1271 11.9306 10.0244 12.0218 9.91685C12.1126 9.80919 12.2013 9.69908 12.2847 9.58349C12.9597 8.64316 13.3662 7.4491 13.3662 6.149C13.3662 3.12911 11.1822 0.672607 8.49816 0.672607C5.81415 0.672607 3.63025 3.1295 3.63025 6.14892C3.63025 7.44902 4.03679 8.64316 4.71179 9.58341C4.79483 9.69908 4.8834 9.80881 4.97465 9.91685Z" fill="white"/>
</g>
</svg>
