<svg width="23" height="37" viewBox="0 0 23 37" fill="none" xmlns="http://www.w3.org/2000/svg">
<path d="M11.5 0.791016C17.851 0.791016 23 6.45981 23 13.452C23 13.9873 22.961 14.509 22.9015 15.0261C21.9189 24.916 12.2467 36.3145 12.2467 36.3145C12.0744 36.5269 11.9083 36.6578 11.7483 36.7526L11.74 36.7572L11.4179 36.8701L11.0959 36.7572L11.0876 36.7526C10.9276 36.6578 10.7614 36.52 10.5892 36.3145C10.5892 36.3145 1.05647 24.8957 0.0964298 15.0036C0.0390034 14.4932 1.90735e-06 13.976 1.90735e-06 13.4498C0.00209236 6.45981 5.14895 0.791016 11.5 0.791016ZM11.5 21.5961C15.5781 21.5961 18.8972 17.9419 18.8972 13.4521C18.8972 8.96223 15.5781 5.30804 11.5 5.30804C7.42189 5.30804 4.10483 8.96223 4.10483 13.4521C4.10483 17.9419 7.42189 21.5961 11.5 21.5961Z" fill="url(#paint0_linear)"/>
<defs>
<linearGradient id="paint0_linear" x1="19.4473" y1="5.79178" x2="-3.59218" y2="21.1533" gradientUnits="userSpaceOnUse">
<stop stop-color="#258BBC"/>
<stop offset="0.469613" stop-color="#26A7A2"/>
<stop offset="1" stop-color="#26BB91"/>
</linearGradient>
</defs>
</svg>
