<svg width="15" height="17" viewBox="0 0 15 17" fill="none" xmlns="http://www.w3.org/2000/svg">
<path d="M14.7344 15.2056L9.93437 4.05379C9.87977 3.919 9.83552 3.69091 9.83552 3.5443V2.51624C9.83552 2.36963 9.94615 2.2206 10.068 2.14972C10.4019 1.95405 10.6297 1.58117 10.6297 1.14983C10.6297 0.515849 10.1404 0 9.5387 0H5.51219C4.91079 0 4.42145 0.515849 4.42145 1.14983C4.42145 1.54149 4.60851 1.8865 4.89326 2.09338C5.00733 2.17668 5.1148 2.33692 5.1148 2.48322V3.67001C5.1148 3.81662 5.06739 4.04319 5.00848 4.17586L0.141795 15.2113C-0.0533092 15.6539 -0.0467004 16.1028 0.159323 16.4436C0.365633 16.7843 0.749521 16.98 1.21214 16.98H13.6224C14.0827 16.98 14.4689 16.7843 14.6821 16.4436C14.8962 16.1031 14.9151 15.6521 14.7344 15.2056ZM3.66172 10.4033L1.18341 15.8178C1.15869 15.8717 1.10726 15.9029 1.0541 15.9029C1.03313 15.9029 1.01186 15.898 0.991461 15.8877C0.920201 15.8514 0.890318 15.7608 0.924798 15.6854L3.40311 10.2709C3.43731 10.1958 3.5238 10.164 3.59506 10.2004C3.66632 10.237 3.6962 10.3276 3.66172 10.4033ZM11.0961 9.57455H3.71229C3.57322 9.57455 3.50799 9.46702 3.56661 9.33405L5.76362 4.35215C5.82223 4.21948 5.8547 3.99291 5.8547 3.8463V1.80653C5.8547 1.63902 5.7777 1.50363 5.68316 1.50363H5.51162C5.32657 1.50363 5.176 1.34521 5.176 1.14983C5.176 0.95476 5.32657 0.796037 5.51162 0.796037H9.53812C9.72374 0.796037 9.87374 0.95476 9.87374 1.14983C9.87374 1.3449 9.72374 1.50363 9.53812 1.50363C9.53812 1.50363 9.43755 1.50363 9.31342 1.50363C9.18929 1.50363 9.08843 1.63902 9.08843 1.80653V3.70696C9.08843 3.85327 9.12435 4.08136 9.17895 4.21645L11.2481 9.33072C11.3033 9.46551 11.2354 9.57455 11.0961 9.57455Z" fill="url(#paint0_linear)"/>
<defs>
<linearGradient id="paint0_linear" x1="0" y1="1.24853" x2="15.9206" y2="15.8184" gradientUnits="userSpaceOnUse">
<stop stop-color="#258BBC"/>
<stop offset="0.469613" stop-color="#26A7A2"/>
<stop offset="1" stop-color="#26BB91"/>
</linearGradient>
</defs>
</svg>
