<svg width="16" height="18" viewBox="0 0 16 18" fill="none" xmlns="http://www.w3.org/2000/svg">
<path d="M13.4375 9.82713V9.10313V8.61805C14.1862 8.0959 14.375 7.54045 14.375 7.11347V5.12382C14.375 4.72698 14.2049 4.1592 13.4375 3.62157V3.13417C13.4375 2.53455 13.0655 1.68159 11.293 1.02331C10.0641 0.56685 8.43953 0.315491 6.71875 0.315491C4.99797 0.315491 3.37344 0.56685 2.14447 1.02331C0.372031 1.68159 0 2.53455 0 3.13417V5.12382C0 5.41381 0.0870312 5.76303 0.377375 6.12084C0.075125 6.49552 0 6.85227 0 7.11347V13.0824C0 13.6821 0.372031 14.535 2.14447 15.1933C3.37344 15.6498 4.99797 15.9011 6.71875 15.9011C7.66869 15.9011 8.6115 15.8221 9.46691 15.672C10.1179 16.6522 11.1927 17.2939 12.4062 17.2939C14.3878 17.2939 16 15.5831 16 13.4804C16 11.7578 14.918 10.2986 13.4375 9.82713ZM2.45419 1.96226C3.58616 1.54185 5.10069 1.31032 6.71875 1.31032C8.33681 1.31032 9.85134 1.54185 10.9833 1.96226C12.1028 2.37803 12.5 2.85343 12.5 3.13417C12.5 3.41491 12.1028 3.8903 10.9833 4.30607C9.85134 4.72649 8.33681 4.95802 6.71875 4.95802C5.10069 4.95802 3.58616 4.72649 2.45419 4.30607C1.33472 3.8903 0.9375 3.41491 0.9375 3.13417C0.9375 2.85343 1.33472 2.37803 2.45419 1.96226ZM8.87525 12.7702C8.18897 12.8672 7.46537 12.9166 6.71875 12.9166C5.10069 12.9166 3.58616 12.6851 2.45419 12.2647C1.33472 11.8489 0.9375 11.3735 0.9375 11.0928V10.6077C1.24019 10.8188 1.63419 11.0245 2.14447 11.214C3.37344 11.6704 4.99797 11.9218 6.71875 11.9218C7.58441 11.9218 8.42753 11.8579 9.21153 11.7351C9.05506 12.0564 8.9405 12.4042 8.87525 12.7702ZM7.65625 8.93732C6.03819 8.93732 4.52366 8.70579 3.39169 8.28538C2.29228 7.87707 1.88975 7.41139 1.87566 7.12889C1.96153 7.16464 2.05094 7.19996 2.14447 7.23468C3.37344 7.69114 4.99797 7.9425 6.71875 7.9425C8.43953 7.9425 10.0641 7.69114 11.293 7.23468C13.0655 6.5764 13.4375 5.72344 13.4375 5.12382V7.11347C13.4375 7.39421 13.0403 7.86961 11.9208 8.28538C10.7888 8.70579 9.27431 8.93732 7.65625 8.93732ZM12.4062 16.299C10.9416 16.299 9.75 15.0346 9.75 13.4804C9.75 11.9261 10.9416 10.6617 12.4062 10.6617C13.8709 10.6617 15.0625 11.9261 15.0625 13.4804C15.0625 15.0346 13.8709 16.299 12.4062 16.299Z" fill="url(#paint0_linear)"/>
<path d="M13.6999 11.9929L11.8907 13.9127L11.1127 13.0872L10.4498 13.7906L11.8907 15.3196L14.3627 12.6963L13.6999 11.9929Z" fill="url(#paint1_linear)"/>
<defs>
<linearGradient id="paint0_linear" x1="2.47145" y1="2.66879" x2="14.2153" y2="14.2438" gradientUnits="userSpaceOnUse">
<stop stop-color="#258BBC"/>
<stop offset="0.469613" stop-color="#26A7A2"/>
<stop offset="1" stop-color="#26BB91"/>
</linearGradient>
<linearGradient id="paint1_linear" x1="11.0542" y1="12.454" x2="13.307" y2="15.2253" gradientUnits="userSpaceOnUse">
<stop stop-color="#258BBC"/>
<stop offset="0.469613" stop-color="#26A7A2"/>
<stop offset="1" stop-color="#26BB91"/>
</linearGradient>
</defs>
</svg>
