<svg width="16" height="18" viewBox="0 0 16 18" fill="none" xmlns="http://www.w3.org/2000/svg">
<path d="M9.53674e-07 5.97495C9.53674e-07 5.88292 0.0325212 5.80241 0.0975618 5.73339C0.162602 5.66437 0.238472 5.62986 0.325204 5.62986H4.68293C4.76966 5.62986 4.84553 5.59535 4.91057 5.52633C4.97561 5.45732 5.00813 5.37681 5.00813 5.28477V0.66058C5.00813 0.568544 5.04065 0.488035 5.10569 0.419017C5.17073 0.35 5.2466 0.315491 5.33333 0.315491H10.6667C10.7534 0.315491 10.8293 0.35 10.8943 0.419017C10.9593 0.488035 10.9919 0.568544 10.9919 0.66058V5.28477C10.9919 5.37681 11.0244 5.45732 11.0894 5.52633C11.1545 5.59535 11.2303 5.62986 11.3171 5.62986H15.6748C15.7615 5.62986 15.8374 5.66437 15.9024 5.73339C15.9675 5.80241 16 5.88292 16 5.97495V11.6344C16 11.7264 15.9675 11.807 15.9024 11.876C15.8374 11.945 15.7615 11.9795 15.6748 11.9795H11.3171C11.2303 11.9795 11.1545 12.014 11.0894 12.083C11.0244 12.152 10.9919 12.2326 10.9919 12.3246V16.9488C10.9919 17.0408 10.9593 17.1213 10.8943 17.1903C10.8293 17.2594 10.7534 17.2939 10.6667 17.2939H5.33333C5.2466 17.2939 5.17073 17.2594 5.10569 17.1903C5.04065 17.1213 5.00813 17.0408 5.00813 16.9488V12.3246C5.00813 12.2326 4.97561 12.152 4.91057 12.083C4.84553 12.014 4.76966 11.9795 4.68293 11.9795H0.325204C0.238472 11.9795 0.162602 11.945 0.0975618 11.876C0.0325212 11.807 9.53674e-07 11.7264 9.53674e-07 11.6344V5.97495Z" fill="url(#paint0_linear)"/>
<defs>
<linearGradient id="paint0_linear" x1="13.5286" y1="2.66879" x2="1.78473" y2="14.2438" gradientUnits="userSpaceOnUse">
<stop stop-color="#258BBC"/>
<stop offset="0.469613" stop-color="#26A7A2"/>
<stop offset="1" stop-color="#26BB91"/>
</linearGradient>
</defs>
</svg>
