<svg width="32" height="37" viewBox="0 0 32 37" fill="none" xmlns="http://www.w3.org/2000/svg">
<path d="M28.416 25.9026C26.3418 24.0384 24.2368 22.9092 22.1881 24.7706L20.9647 25.8956C20.0697 26.7122 18.4055 30.5278 11.9712 22.7501C5.53834 14.9823 9.36646 13.7728 10.2629 12.9632L11.4929 11.8368C13.5309 9.97127 12.7618 7.62275 11.2919 5.20525L10.4049 3.74094C8.92831 1.32907 7.32042 -0.254911 5.27706 1.60785L4.17297 2.6216C3.26987 3.31292 0.745482 5.56006 0.133143 9.82906C-0.603807 14.9513 1.72094 20.817 7.04708 27.2528C12.3665 33.6916 17.5747 36.9257 22.5083 36.8694C26.6084 36.8229 29.0846 34.511 29.859 33.6704L30.9671 32.6553C33.0051 30.7939 31.7389 28.8988 29.6634 27.0304L28.416 25.9026Z" fill="url(#paint0_linear)"/>
<defs>
<linearGradient id="paint0_linear" x1="4.94289" y1="5.79178" x2="29.8309" y2="28.8792" gradientUnits="userSpaceOnUse">
<stop stop-color="#258BBC"/>
<stop offset="0.469613" stop-color="#26A7A2"/>
<stop offset="1" stop-color="#26BB91"/>
</linearGradient>
</defs>
</svg>
