<svg width="19" height="18" viewBox="0 0 19 18" fill="none" xmlns="http://www.w3.org/2000/svg">
<path d="M1.65218 13.899H17.3478C18.2607 13.899 19 14.6588 19 15.5969C19 16.535 18.2607 17.2947 17.3478 17.2947H1.65218C0.739348 17.2947 0 16.535 0 15.5969C0 14.6588 0.739348 13.899 1.65218 13.899ZM17.3479 10.5033H1.65218C0.739348 10.5033 0 9.74356 0 8.8055C0 7.86748 0.739348 7.10765 1.65218 7.10765H17.3478C18.2607 7.10765 19 7.86748 19 8.8055C19 9.74356 18.2607 10.5033 17.3479 10.5033ZM17.3479 3.712H1.65218C0.739348 3.712 0 2.95217 0 2.01415C0 1.07613 0.739348 0.316345 1.65218 0.316345H17.3478C18.2607 0.316345 19 1.07613 19 2.01415C19 2.95217 18.2607 3.712 17.3479 3.712Z" fill="url(#paint0_linear)"/>
<defs>
<linearGradient id="paint0_linear" x1="2.93484" y1="14.9414" x2="14.5359" y2="1.36312" gradientUnits="userSpaceOnUse">
<stop stop-color="#258BBC"/>
<stop offset="0.469613" stop-color="#26A7A2"/>
<stop offset="1" stop-color="#26BB91"/>
</linearGradient>
</defs>
</svg>
