<svg width="321" height="14" viewBox="0 0 321 14" fill="none" xmlns="http://www.w3.org/2000/svg">
<path d="M8.16699 11H6.05469V2.76953H2.37695V11H0.257812V1.00586H8.16699V11ZM16.4453 11H10.6895V1.00586H16.4453V2.74219H12.8086V4.93652H16.1924V6.67285H12.8086V9.25H16.4453V11ZM20.6562 5.70898H21.3535C22.0052 5.70898 22.4928 5.58138 22.8164 5.32617C23.14 5.06641 23.3018 4.69043 23.3018 4.19824C23.3018 3.7015 23.165 3.33464 22.8916 3.09766C22.6227 2.86068 22.1989 2.74219 21.6201 2.74219H20.6562V5.70898ZM25.4414 4.12305C25.4414 5.19857 25.1042 6.02116 24.4297 6.59082C23.7598 7.16048 22.805 7.44531 21.5654 7.44531H20.6562V11H18.5371V1.00586H21.7295C22.9417 1.00586 23.8623 1.2679 24.4912 1.79199C25.1247 2.31152 25.4414 3.08854 25.4414 4.12305ZM27.3281 1.00586H30.4385C31.8558 1.00586 32.8835 1.20866 33.5215 1.61426C34.1641 2.0153 34.4854 2.6556 34.4854 3.53516C34.4854 4.13216 34.3441 4.62207 34.0615 5.00488C33.7835 5.3877 33.4121 5.61784 32.9473 5.69531V5.76367C33.5807 5.90495 34.0365 6.16927 34.3145 6.55664C34.597 6.94401 34.7383 7.45898 34.7383 8.10156C34.7383 9.01302 34.4079 9.72396 33.7471 10.2344C33.0908 10.7448 32.1976 11 31.0674 11H27.3281V1.00586ZM29.4473 4.96387H30.6777C31.252 4.96387 31.6667 4.875 31.9219 4.69727C32.1816 4.51953 32.3115 4.22559 32.3115 3.81543C32.3115 3.43262 32.1702 3.15918 31.8877 2.99512C31.6097 2.8265 31.1676 2.74219 30.5615 2.74219H29.4473V4.96387ZM29.4473 6.64551V9.25H30.8281C31.4115 9.25 31.8421 9.13835 32.1201 8.91504C32.3981 8.69173 32.5371 8.34993 32.5371 7.88965C32.5371 7.06022 31.9447 6.64551 30.7598 6.64551H29.4473ZM36.7344 1.00586H38.6416V5.83203L38.6143 7.12402L38.5459 8.59375H38.5869L43.2012 1.00586H45.7373V11H43.8506V6.20117C43.8506 5.55859 43.8916 4.60612 43.9736 3.34375H43.9189L39.2842 11H36.7344V1.00586ZM55.9365 11H53.8174V7.1377C53.1156 7.37467 52.5299 7.53646 52.0605 7.62305C51.5957 7.70964 51.1514 7.75293 50.7275 7.75293C49.7751 7.75293 49.0391 7.52507 48.5195 7.06934C48.0046 6.60905 47.7471 5.96419 47.7471 5.13477V1.00586H49.8594V4.5332C49.8594 5.01628 49.971 5.38086 50.1943 5.62695C50.4176 5.86849 50.7959 5.98926 51.3291 5.98926C51.7028 5.98926 52.0742 5.9528 52.4434 5.87988C52.8171 5.80241 53.2751 5.67025 53.8174 5.4834V1.00586H55.9365V11ZM66.6484 11H64.5361V6.68652H60.5781V11H58.459V1.00586H60.5781V4.92285H64.5361V1.00586H66.6484V11ZM75.2959 11L74.5713 8.62109H70.9277L70.2031 11H67.9199L71.4473 0.964844H74.0381L77.5791 11H75.2959ZM74.0654 6.84375C73.3955 4.68815 73.0173 3.46908 72.9307 3.18652C72.8486 2.90397 72.7894 2.68066 72.7529 2.5166C72.6025 3.09993 72.1719 4.54232 71.4609 6.84375H74.0654ZM82.207 7.16504L79.8691 11H77.5176L80.3613 6.60449C79.7962 6.37663 79.3633 6.02572 79.0625 5.55176C78.7617 5.07324 78.6113 4.51042 78.6113 3.86328C78.6113 2.94727 78.9349 2.24316 79.582 1.75098C80.2337 1.25423 81.168 1.00586 82.3848 1.00586H85.6387V11H83.5195V7.16504H82.207ZM83.5195 2.74219H82.4736C81.9268 2.74219 81.5029 2.84017 81.2021 3.03613C80.9014 3.2321 80.751 3.55794 80.751 4.01367C80.751 4.45573 80.8968 4.80436 81.1885 5.05957C81.4801 5.31478 81.9268 5.44238 82.5283 5.44238H83.5195V2.74219ZM99.9395 11H97.5332L93.9102 5.93457V11H91.791V1.00586H93.9102V5.8457L97.4922 1.00586H99.748L96.1045 5.80469L99.9395 11ZM110.269 5.98926C110.269 7.64355 109.858 8.91504 109.038 9.80371C108.218 10.6924 107.042 11.1367 105.511 11.1367C103.979 11.1367 102.804 10.6924 101.983 9.80371C101.163 8.91504 100.753 7.639 100.753 5.97559C100.753 4.31217 101.163 3.04297 101.983 2.16797C102.808 1.28841 103.989 0.848633 105.524 0.848633C107.06 0.848633 108.234 1.29069 109.045 2.1748C109.861 3.05892 110.269 4.3304 110.269 5.98926ZM102.975 5.98926C102.975 7.10579 103.187 7.94661 103.61 8.51172C104.034 9.07682 104.668 9.35938 105.511 9.35938C107.201 9.35938 108.047 8.236 108.047 5.98926C108.047 3.73796 107.206 2.6123 105.524 2.6123C104.681 2.6123 104.046 2.89714 103.617 3.4668C103.189 4.0319 102.975 4.87272 102.975 5.98926ZM120.529 11H118.417V6.68652H114.459V11H112.34V1.00586H114.459V4.92285H118.417V1.00586H120.529V11ZM127.304 2.62598C126.506 2.62598 125.889 2.92676 125.451 3.52832C125.014 4.12533 124.795 4.95931 124.795 6.03027C124.795 8.25879 125.631 9.37305 127.304 9.37305C128.006 9.37305 128.855 9.19759 129.854 8.84668V10.624C129.033 10.9658 128.117 11.1367 127.105 11.1367C125.652 11.1367 124.54 10.6969 123.77 9.81738C122.999 8.93327 122.614 7.66634 122.614 6.0166C122.614 4.97754 122.803 4.06836 123.182 3.28906C123.56 2.50521 124.102 1.90592 124.809 1.49121C125.52 1.07194 126.351 0.862305 127.304 0.862305C128.274 0.862305 129.25 1.09701 130.229 1.56641L129.546 3.28906C129.172 3.11133 128.796 2.95638 128.418 2.82422C128.04 2.69206 127.668 2.62598 127.304 2.62598ZM139.868 1.00586L136.778 8.07422C136.391 8.96289 136.026 9.60091 135.685 9.98828C135.347 10.3757 134.946 10.665 134.481 10.8564C134.017 11.0433 133.451 11.1367 132.786 11.1367C132.216 11.1367 131.686 11.0684 131.193 10.9316V9.11328C131.594 9.27734 132.093 9.35938 132.69 9.35938C133.069 9.35938 133.374 9.27279 133.606 9.09961C133.839 8.92188 134.033 8.61654 134.188 8.18359L130.729 1.00586H132.971L135.432 6.57715H135.5L135.623 6.23535L137.688 1.00586H139.868ZM149.042 11H146.93V2.76953H144.482L144.373 3.68555C144.09 6.01432 143.84 7.65039 143.621 8.59375C143.407 9.53255 143.092 10.1934 142.678 10.5762C142.263 10.959 141.702 11.1458 140.996 11.1367C140.613 11.1367 140.276 11.0866 139.984 10.9863V9.25C140.249 9.34115 140.497 9.38672 140.729 9.38672C140.971 9.38672 141.162 9.27734 141.304 9.05859C141.445 8.83529 141.577 8.42513 141.7 7.82812C141.828 7.22656 141.994 6.24447 142.199 4.88184C142.409 3.51465 142.587 2.22266 142.732 1.00586H149.042V11ZM158.605 7.87598C158.605 9.95866 157.229 11 154.477 11H151.564V1.00586H153.684V4.84082H154.518C155.821 4.84082 156.828 5.10514 157.539 5.63379C158.25 6.16243 158.605 6.90983 158.605 7.87598ZM153.684 9.26367H154.395C155.11 9.26367 155.634 9.14974 155.967 8.92188C156.299 8.68945 156.466 8.34082 156.466 7.87598C156.466 7.41569 156.297 7.08529 155.96 6.88477C155.623 6.67969 155.044 6.57715 154.224 6.57715H153.684V9.26367ZM164.361 11H162.242V2.76953H159.528V1.00586H167.075V2.76953H164.361V11ZM174.731 11L174.007 8.62109H170.363L169.639 11H167.355L170.883 0.964844H173.474L177.015 11H174.731ZM173.501 6.84375C172.831 4.68815 172.453 3.46908 172.366 3.18652C172.284 2.90397 172.225 2.68066 172.188 2.5166C172.038 3.09993 171.607 4.54232 170.896 6.84375H173.501ZM186.188 9.31836H187.679V13.9121H185.635V11H178.279V1.00586H180.398V9.23633H184.076V1.00586H186.188V9.31836ZM189.217 1.00586H191.124V5.83203L191.097 7.12402L191.028 8.59375H191.069L195.684 1.00586H198.22V11H196.333V6.20117C196.333 5.55859 196.374 4.60612 196.456 3.34375H196.401L191.767 11H189.217V1.00586ZM204.105 7.16504L201.768 11H199.416L202.26 6.60449C201.695 6.37663 201.262 6.02572 200.961 5.55176C200.66 5.07324 200.51 4.51042 200.51 3.86328C200.51 2.94727 200.833 2.24316 201.48 1.75098C202.132 1.25423 203.066 1.00586 204.283 1.00586H207.537V11H205.418V7.16504H204.105ZM205.418 2.74219H204.372C203.825 2.74219 203.401 2.84017 203.101 3.03613C202.8 3.2321 202.649 3.55794 202.649 4.01367C202.649 4.45573 202.795 4.80436 203.087 5.05957C203.379 5.31478 203.825 5.44238 204.427 5.44238H205.418V2.74219ZM217.935 2.62598C217.137 2.62598 216.52 2.92676 216.082 3.52832C215.645 4.12533 215.426 4.95931 215.426 6.03027C215.426 8.25879 216.262 9.37305 217.935 9.37305C218.636 9.37305 219.486 9.19759 220.484 8.84668V10.624C219.664 10.9658 218.748 11.1367 217.736 11.1367C216.283 11.1367 215.171 10.6969 214.4 9.81738C213.63 8.93327 213.245 7.66634 213.245 6.0166C213.245 4.97754 213.434 4.06836 213.812 3.28906C214.191 2.50521 214.733 1.90592 215.439 1.49121C216.15 1.07194 216.982 0.862305 217.935 0.862305C218.905 0.862305 219.881 1.09701 220.86 1.56641L220.177 3.28906C219.803 3.11133 219.427 2.95638 219.049 2.82422C218.671 2.69206 218.299 2.62598 217.935 2.62598ZM230.526 11H228.414V2.76953H224.736V11H222.617V1.00586H230.526V11ZM238.805 11H233.049V1.00586H238.805V2.74219H235.168V4.93652H238.552V6.67285H235.168V9.25H238.805V11ZM248.806 9.31836H250.296V13.9121H248.252V11H240.896V1.00586H243.016V9.23633H246.693V1.00586H248.806V9.31836ZM251.834 1.00586H253.741V5.83203L253.714 7.12402L253.646 8.59375H253.687L258.301 1.00586H260.837V11H258.95V6.20117C258.95 5.55859 258.991 4.60612 259.073 3.34375H259.019L254.384 11H251.834V1.00586ZM269.478 11L268.753 8.62109H265.109L264.385 11H262.102L265.629 0.964844H268.22L271.761 11H269.478ZM268.247 6.84375C267.577 4.68815 267.199 3.46908 267.112 3.18652C267.03 2.90397 266.971 2.68066 266.935 2.5166C266.784 3.09993 266.354 4.54232 265.643 6.84375H268.247ZM280.935 11H278.822V2.76953H276.375L276.266 3.68555C275.983 6.01432 275.732 7.65039 275.514 8.59375C275.299 9.53255 274.985 10.1934 274.57 10.5762C274.156 10.959 273.595 11.1458 272.889 11.1367C272.506 11.1367 272.169 11.0866 271.877 10.9863V9.25C272.141 9.34115 272.39 9.38672 272.622 9.38672C272.864 9.38672 273.055 9.27734 273.196 9.05859C273.338 8.83529 273.47 8.42513 273.593 7.82812C273.72 7.22656 273.887 6.24447 274.092 4.88184C274.301 3.51465 274.479 2.22266 274.625 1.00586H280.935V11ZM283.457 1.00586H285.364V5.83203L285.337 7.12402L285.269 8.59375H285.31L289.924 1.00586H292.46V11H290.573V6.20117C290.573 5.55859 290.614 4.60612 290.696 3.34375H290.642L286.007 11H283.457V1.00586ZM299.228 2.62598C298.43 2.62598 297.812 2.92676 297.375 3.52832C296.938 4.12533 296.719 4.95931 296.719 6.03027C296.719 8.25879 297.555 9.37305 299.228 9.37305C299.929 9.37305 300.779 9.19759 301.777 8.84668V10.624C300.957 10.9658 300.041 11.1367 299.029 11.1367C297.576 11.1367 296.464 10.6969 295.693 9.81738C294.923 8.93327 294.538 7.66634 294.538 6.0166C294.538 4.97754 294.727 4.06836 295.105 3.28906C295.484 2.50521 296.026 1.90592 296.732 1.49121C297.443 1.07194 298.275 0.862305 299.228 0.862305C300.198 0.862305 301.174 1.09701 302.153 1.56641L301.47 3.28906C301.096 3.11133 300.72 2.95638 300.342 2.82422C299.964 2.69206 299.592 2.62598 299.228 2.62598ZM307.766 11H305.646V2.76953H302.933V1.00586H310.479V2.76953H307.766V11ZM318.136 11L317.411 8.62109H313.768L313.043 11H310.76L314.287 0.964844H316.878L320.419 11H318.136ZM316.905 6.84375C316.235 4.68815 315.857 3.46908 315.771 3.18652C315.688 2.90397 315.629 2.68066 315.593 2.5166C315.442 3.09993 315.012 4.54232 314.301 6.84375H316.905Z" fill="url(#paint0_linear)"/>
<defs>
<linearGradient id="paint0_linear" x1="-1" y1="-2.52941" x2="0.562491" y2="35.0574" gradientUnits="userSpaceOnUse">
<stop stop-color="#258BBC"/>
<stop offset="0.469613" stop-color="#26A7A2"/>
<stop offset="1" stop-color="#26BB91"/>
</linearGradient>
</defs>
</svg>
